<?xml version="1.0" ?>
<!-- Uploaded to: SVG Repo, www.svgrepo.com, Generator: SVG Repo Mixer Tools -->
<svg fill="#000000" width="800px" height="800px" viewBox="0 0 100 100" version="1.1" xml:space="preserve" xmlns="http://www.w3.org/2000/svg" xmlns:xlink="http://www.w3.org/1999/xlink">
<g id="tree"/>
<g id="plant"/>
<g id="flower"/>
<g id="flower_pot"/>
<g id="rose"/>
<g id="garden"/>
<g id="fance"/>
<g id="floral">
<path d="M84.8,37.6c-2.5-5-8.4-4.6-8.6-4.6c0,0-0.1,0-0.1,0c-7.1-4.1-13-4.7-17.5-1.9c-3.8,2.3-6.1,6.8-7.5,11.7   c0.3-6.2,2-15.3,8.1-21.6c0.7,0.6,1.7,1,2.6,1c0.3,0,0.6,0,0.9-0.1c0.7,1.1,2,1.8,3.4,1.8c1.4,0,2.7-0.7,3.4-1.8   c0.3,0.1,0.6,0.1,0.9,0.1c1,0,2.1-0.4,2.8-1.2c1-1,1.4-2.4,1.1-3.7c1.1-0.7,1.9-2,1.9-3.4c0-1.4-0.7-2.7-1.9-3.4   c0.3-1.3-0.1-2.7-1.1-3.7c-1-1-2.4-1.4-3.7-1.1C68.6,4.7,67.4,4,66,4c-1.4,0-2.7,0.7-3.4,1.9c-1.3-0.3-2.7,0.1-3.7,1.1   c-1,1-1.4,2.4-1.1,3.7c-1.1,0.7-1.9,2-1.9,3.4c0,1.4,0.7,2.7,1.9,3.4c-0.2,0.7-0.1,1.5,0.1,2.2c-4.6,4.5-6.9,10.3-8,15.7   c-1.1-5.3-3.4-11.2-8-15.7c0.3-0.7,0.3-1.5,0.1-2.2c1.1-0.7,1.9-2,1.9-3.4c0-1.4-0.7-2.7-1.9-3.4c0.3-1.3-0.1-2.7-1.1-3.7   c-1-1-2.4-1.4-3.7-1.1C36.6,4.7,35.4,4,34,4c-1.4,0-2.7,0.7-3.4,1.9c-1.3-0.3-2.7,0.1-3.7,1.1c-1,1-1.4,2.4-1.1,3.7   c-1.1,0.7-1.9,2-1.9,3.4c0,1.4,0.7,2.7,1.9,3.4c-0.3,1.3,0.1,2.7,1.1,3.7c0.8,0.8,1.8,1.2,2.8,1.2c0.3,0,0.6,0,0.9-0.1   c0.7,1.1,2,1.8,3.4,1.8c1.4,0,2.7-0.7,3.4-1.8c0.3,0.1,0.6,0.1,0.9,0.1c0.9,0,1.9-0.4,2.6-1c6.1,6.3,7.7,15.3,8.1,21.5   c-1.4-4.9-3.7-9.4-7.5-11.7C36.9,28.3,31,29,24,33c0,0-0.1,0-0.1,0c-0.3,0-6.1-0.4-8.6,4.6c-2.4,4.7-0.6,12.4-0.5,12.8   c0.1,0.3,0.3,0.5,0.5,0.7c0.1,0.1,0.3,0.1,0.4,0.1c0.1,0,0.3,0,0.4-0.1c0.3-0.1,7.6-3.4,9.9-8.1c1.8-3.5,0.4-6.7-0.6-8.4   c6.2-3.5,11.3-4.1,15-1.7c6.4,3.9,8.1,15.3,8.5,23.4c-1.4-6-3.5-9.5-6.4-10.5c-2.7-0.9-5.9,0.5-9.4,4.2c0,0,0,0,0,0   c-1.7,0-5.9,0.6-7.9,4.6c-2.4,4.7-0.6,12.4-0.5,12.8c0.1,0.3,0.3,0.5,0.5,0.7c0.1,0.1,0.3,0.1,0.4,0.1c0.1,0,0.3,0,0.4-0.1   c0.3-0.1,7.6-3.4,10-8.1c2-4,0-7.6-1-9c2.7-2.8,5.1-3.9,6.9-3.3c3.2,1.1,5.5,7.6,6.5,18.4H36c-0.6,0-1,0.4-1,1v6c0,0.6,0.4,1,1,1   h0.1L38,95.1c0,0.5,0.5,0.9,1,0.9h3.4c1.4,0,2.6-0.9,3-2.2c0.2-0.5,0.6-0.8,1.1-0.8h6.8c0.5,0,1,0.3,1.1,0.8c0.4,1.3,1.7,2.2,3,2.2   H61c0.5,0,0.9-0.4,1-0.9L63.9,74H64c0.6,0,1-0.4,1-1v-6c0-0.6-0.4-1-1-1H51.6c1-10.8,3.3-17.3,6.5-18.4c1.8-0.6,4.1,0.5,6.9,3.2   c-1,1.4-3,5-1,9c2.4,4.7,9.7,7.9,10,8.1C74,68,74.2,68,74.3,68c0.2,0,0.3,0,0.4-0.1c0.3-0.1,0.5-0.4,0.5-0.7   c0.1-0.3,1.8-8-0.5-12.8c-2-4-6.2-4.5-7.9-4.6c0,0,0,0,0,0c-3.5-3.7-6.7-5.1-9.4-4.2c-2.8,1-4.9,4.5-6.4,10.5   c0.4-8.1,2.1-19.5,8.5-23.4c3.8-2.3,8.8-1.7,15,1.7c-1,1.7-2.4,4.9-0.6,8.4c2.4,4.7,9.6,7.9,9.9,8.1c0.1,0.1,0.3,0.1,0.4,0.1   c0.2,0,0.3,0,0.4-0.1c0.3-0.1,0.5-0.4,0.5-0.7C85.4,50,87.1,42.3,84.8,37.6z M24.2,42.1c-1.5,3.1-5.8,5.5-7.8,6.6   c-0.4-2.3-0.9-7.1,0.6-10.2c1.6-3.1,4.9-3.5,6.2-3.5c0.1,0,0.1,0.1,0.2,0.1C24.1,36.2,25.7,39,24.2,42.1z M34.3,58.9   c-1.5,3.1-5.8,5.5-7.8,6.6c-0.4-2.3-0.9-7.1,0.6-10.2c1.6-3.2,5.1-3.5,6.3-3.5C34,52.8,35.8,55.8,34.3,58.9z M73,55.4   c1.5,3,1,7.9,0.6,10.2c-2.1-1.1-6.3-3.5-7.8-6.6c-1.6-3.2,0.2-6.1,1-7.1C67.9,51.9,71.4,52.2,73,55.4z M59.4,12.1   C59.6,12,59.8,12,60,12c0.1,0,0.3,0,0.4,0c0,0,0.1,0,0.1,0c0.1,0,0.2,0.1,0.3,0.1c0,0,0.1,0,0.1,0c0.1,0.1,0.2,0.1,0.3,0.2   c-0.1,0.2-0.1,0.3-0.1,0.5c0,0.1-0.1,0.2-0.1,0.3c0,0.3-0.1,0.5-0.1,0.8c0,0.3,0,0.6,0.1,0.8c0,0.1,0,0.2,0.1,0.2   c0,0.2,0.1,0.3,0.1,0.5c-0.1,0-0.1,0.1-0.2,0.1c-0.1,0-0.1,0.1-0.2,0.1c-0.1,0-0.2,0.1-0.3,0.1c0,0-0.1,0-0.1,0c-0.1,0-0.2,0-0.3,0   c0,0-0.1,0-0.1,0c-0.2,0-0.3,0-0.5-0.1c0,0-0.1,0-0.1,0c-0.8-0.3-1.4-1-1.4-1.9S58.6,12.4,59.4,12.1z M71.1,12.2   c0.1-0.1,0.2-0.1,0.3-0.1c0,0,0.1,0,0.1,0c0.1,0,0.2,0,0.4,0c0,0,0.1,0,0.1,0c0.2,0,0.3,0,0.5,0.1c0,0,0.1,0,0.1,0   c0.8,0.3,1.4,1,1.4,1.9s-0.6,1.6-1.4,1.9C72.4,16,72.2,16,72.1,16c-0.1,0-0.2,0-0.4,0c0,0,0,0-0.1,0c-0.1,0-0.3-0.1-0.4-0.1   c0,0,0,0,0,0c-0.1,0-0.2-0.1-0.3-0.2c0,0-0.1,0-0.1-0.1c0.1-0.2,0.1-0.3,0.1-0.5c0-0.1,0.1-0.2,0.1-0.3c0-0.3,0.1-0.5,0.1-0.8   c0-0.3,0-0.5-0.1-0.8c0-0.1,0-0.2-0.1-0.3c0-0.2-0.1-0.3-0.1-0.5c0.1,0,0.1-0.1,0.2-0.1C71,12.3,71.1,12.2,71.1,12.2z M65.1,16.8   c-0.1,0-0.3-0.1-0.4-0.2c-0.6-0.3-1.1-0.8-1.3-1.4c-0.1-0.1-0.1-0.2-0.2-0.4c0-0.1-0.1-0.2-0.1-0.3c0-0.1,0-0.1,0-0.2   c0-0.2,0-0.3,0-0.5c0-0.3,0.1-0.7,0.2-0.9c0-0.1,0.1-0.3,0.2-0.4c0.3-0.6,0.8-1.1,1.4-1.3c0.1-0.1,0.2-0.1,0.4-0.2   c0.6-0.2,1.3-0.2,1.9,0c0.1,0,0.3,0.1,0.4,0.2c0.6,0.3,1.1,0.8,1.3,1.4c0.1,0.1,0.1,0.2,0.2,0.4c0.1,0.3,0.2,0.6,0.2,1   s-0.1,0.7-0.2,0.9c0,0.1-0.1,0.3-0.2,0.4c-0.3,0.6-0.8,1.1-1.4,1.3c-0.1,0.1-0.2,0.1-0.4,0.2C66.4,17.1,65.6,17,65.1,16.8z    M60.3,19.6c-0.5-0.4-0.7-1.1-0.6-1.7c0,0,0.1,0,0.1,0c0,0,0.1,0,0.1,0c0.1,0,0.3,0,0.4,0c0,0,0,0,0,0c0.2,0,0.4-0.1,0.6-0.1   c0,0,0,0,0.1,0c0.2,0,0.3-0.1,0.5-0.2c0,0,0.1,0,0.1,0c0.2-0.1,0.4-0.2,0.5-0.3c0,0,0,0,0,0c0,0,0.1,0.1,0.1,0.1   c0.1,0.1,0.1,0.1,0.2,0.2c0,0,0.1,0.1,0.1,0.1c0,0,0,0,0,0c-0.1,0.1-0.2,0.3-0.3,0.5c0,0,0,0.1-0.1,0.1c-0.1,0.1-0.1,0.2-0.1,0.4   c0,0.1,0,0.1-0.1,0.2c0,0.1-0.1,0.2-0.1,0.4c0,0.1,0,0.1,0,0.2c0,0.2,0,0.4,0,0.5c0,0.1,0,0.2,0,0.2C61.4,20.3,60.8,20.1,60.3,19.6   z M66,22c-0.9,0-1.6-0.6-1.9-1.4C64,20.4,64,20.2,64,20c0-0.1,0-0.3,0-0.4c0,0,0-0.1,0-0.1c0-0.1,0.1-0.2,0.1-0.3c0,0,0-0.1,0-0.1   c0.1-0.1,0.1-0.2,0.2-0.3c0.1,0,0.3,0.1,0.4,0.1c0.1,0,0.2,0.1,0.4,0.1c0.2,0,0.4,0,0.5,0c0.1,0,0.2,0,0.3,0c0.1,0,0.2,0,0.3,0   c0.2,0,0.3,0,0.5,0c0.1,0,0.2-0.1,0.4-0.1c0.1,0,0.3-0.1,0.4-0.1c0.1,0.1,0.2,0.2,0.2,0.3c0,0,0,0.1,0,0.1c0,0.1,0.1,0.2,0.1,0.3   c0,0,0,0.1,0,0.1c0,0.1,0,0.3,0,0.4c0,0.2,0,0.4-0.1,0.5c0,0,0,0,0,0.1C67.6,21.4,66.9,22,66,22z M71.7,19.6   C71.7,19.7,71.7,19.7,71.7,19.6c-0.5,0.5-1.1,0.7-1.7,0.6c0-0.1,0-0.2,0-0.2c0-0.2,0-0.4,0-0.5c0-0.1,0-0.1,0-0.2   c0-0.1-0.1-0.3-0.1-0.4c0-0.1,0-0.1-0.1-0.2c0-0.1-0.1-0.3-0.1-0.4c0,0,0-0.1-0.1-0.1c-0.1-0.2-0.2-0.3-0.3-0.5c0,0,0,0,0,0   c0,0,0.1-0.1,0.1-0.1c0.1-0.1,0.1-0.1,0.2-0.2c0,0,0.1-0.1,0.1-0.1c0,0,0,0,0,0c0.2,0.1,0.3,0.2,0.5,0.3c0,0,0.1,0,0.1,0   c0.2,0.1,0.3,0.1,0.5,0.2c0,0,0,0,0.1,0c0.2,0.1,0.4,0.1,0.6,0.1c0,0,0,0,0,0c0.1,0,0.3,0,0.4,0c0,0,0.1,0,0.1,0c0,0,0.1,0,0.1,0   C72.3,18.6,72.1,19.2,71.7,19.6z M71.7,8.4c0.5,0.4,0.7,1.1,0.6,1.7c0,0-0.1,0-0.1,0c0,0-0.1,0-0.1,0c-0.1,0-0.3,0-0.4,0   c0,0,0,0,0,0c-0.2,0-0.4,0.1-0.6,0.1c0,0,0,0-0.1,0c-0.2,0-0.3,0.1-0.5,0.2c0,0-0.1,0-0.1,0c-0.2,0.1-0.4,0.2-0.5,0.3c0,0,0,0,0,0   c0,0-0.1-0.1-0.1-0.1c-0.1-0.1-0.1-0.1-0.2-0.2c0,0-0.1-0.1-0.1-0.1c0,0,0,0,0,0c0.1-0.1,0.2-0.3,0.3-0.5c0,0,0-0.1,0.1-0.1   c0.1-0.1,0.1-0.2,0.1-0.4c0-0.1,0-0.1,0.1-0.2c0-0.1,0.1-0.2,0.1-0.4c0-0.1,0-0.1,0-0.2c0-0.2,0-0.4,0-0.5c0-0.1,0-0.2,0-0.2   C70.6,7.7,71.2,7.9,71.7,8.4z M66,6c0.9,0,1.6,0.6,1.9,1.4C68,7.6,68,7.8,68,8c0,0.1,0,0.3,0,0.4c0,0,0,0.1,0,0.1   c0,0.1-0.1,0.2-0.1,0.3c0,0,0,0.1,0,0.1c-0.1,0.1-0.1,0.2-0.2,0.3c-0.2-0.1-0.4-0.1-0.6-0.2c0,0-0.1,0-0.1,0C66.6,9,66.3,9,66,9   c-0.3,0-0.6,0-0.8,0.1c0,0-0.1,0-0.1,0c-0.2,0-0.4,0.1-0.6,0.1c-0.1-0.1-0.2-0.2-0.2-0.3c0,0,0-0.1,0-0.1c0-0.1-0.1-0.2-0.1-0.3   c0,0,0-0.1,0-0.1c0-0.1,0-0.3,0-0.4c0-0.2,0-0.4,0.1-0.5c0,0,0,0,0-0.1C64.4,6.6,65.1,6,66,6z M60.4,8.3c0.4-0.5,1.1-0.7,1.7-0.6   c0,0.1,0,0.2,0,0.2c0,0.2,0,0.4,0,0.5c0,0.1,0,0.1,0,0.2c0,0.1,0.1,0.3,0.1,0.4c0,0.1,0,0.1,0.1,0.2c0,0.1,0.1,0.2,0.1,0.4   c0,0,0,0.1,0.1,0.1c0.1,0.2,0.2,0.3,0.3,0.5c0,0,0,0,0,0c0,0-0.1,0.1-0.1,0.1c-0.1,0.1-0.1,0.1-0.2,0.2c0,0-0.1,0.1-0.1,0.1   c0,0,0,0,0,0c-0.1-0.1-0.3-0.2-0.5-0.3c0,0-0.1,0-0.1-0.1c-0.1-0.1-0.2-0.1-0.4-0.1c-0.1,0-0.1,0-0.2-0.1c-0.1,0-0.2-0.1-0.4-0.1   c-0.1,0-0.1,0-0.2,0c-0.2,0-0.4,0-0.5,0c-0.1,0-0.2,0-0.2,0C59.7,9.4,59.9,8.8,60.4,8.3z M39.7,16C39.7,16,39.7,16,39.7,16   c-0.2,0-0.4-0.1-0.5-0.1c0,0,0,0,0,0c-0.1,0-0.2-0.1-0.3-0.2c0,0-0.1,0-0.1-0.1c0.1-0.2,0.1-0.3,0.1-0.5c0-0.1,0.1-0.2,0.1-0.3   c0-0.3,0.1-0.5,0.1-0.8c0-0.3,0-0.5-0.1-0.8c0-0.1,0-0.2-0.1-0.3c0-0.2-0.1-0.3-0.1-0.5c0.1,0,0.1-0.1,0.2-0.1   c0.1,0,0.1-0.1,0.2-0.1c0.1,0,0.2-0.1,0.3-0.1c0,0,0.1,0,0.1,0c0.1,0,0.2,0,0.3,0c0,0,0.1,0,0.1,0c0.2,0,0.3,0,0.5,0.1   c0,0,0.1,0,0.1,0c0.8,0.3,1.4,1,1.4,1.9s-0.6,1.6-1.4,1.9C40.4,16,40.2,16,40.1,16C39.9,16,39.8,16,39.7,16z M33.1,16.8   c-0.1,0-0.3-0.1-0.4-0.2c-0.6-0.3-1.1-0.8-1.3-1.4c-0.1-0.1-0.1-0.2-0.2-0.4C31.1,14.7,31,14.3,31,14s0.1-0.7,0.2-0.9   c0-0.1,0.1-0.3,0.2-0.4c0.3-0.6,0.8-1.1,1.4-1.3c0.1-0.1,0.2-0.1,0.4-0.2c0.6-0.2,1.3-0.2,1.9,0c0.1,0,0.3,0.1,0.4,0.2   c0.6,0.3,1.1,0.8,1.3,1.4c0.1,0.1,0.1,0.2,0.2,0.4c0.1,0.3,0.2,0.6,0.2,0.9c0,0.3-0.1,0.7-0.2,0.9c0,0.1-0.1,0.3-0.2,0.4   c-0.3,0.6-0.8,1.1-1.4,1.3c-0.1,0.1-0.2,0.1-0.4,0.2C34.4,17.1,33.6,17,33.1,16.8z M28.9,15.8c-0.1,0-0.2,0.1-0.3,0.1   c0,0-0.1,0-0.1,0c-0.1,0-0.2,0-0.3,0c0,0-0.1,0-0.1,0c-0.2,0-0.3,0-0.5-0.1c0,0-0.1,0-0.1,0c-0.8-0.3-1.4-1-1.4-1.9   s0.6-1.6,1.4-1.9C27.6,12,27.8,12,28,12c0.1,0,0.3,0,0.4,0c0,0,0.1,0,0.1,0c0.1,0,0.2,0.1,0.3,0.1c0,0,0.1,0,0.1,0   c0.1,0.1,0.2,0.1,0.3,0.2c-0.1,0.2-0.1,0.3-0.1,0.5c0,0.1-0.1,0.2-0.1,0.3c0,0.3-0.1,0.5-0.1,0.8c0,0.3,0,0.5,0.1,0.8   c0,0.1,0,0.2,0.1,0.3c0,0.2,0.1,0.3,0.1,0.5c-0.1,0-0.1,0.1-0.2,0.1C29,15.7,29,15.8,28.9,15.8z M39.7,8.4c0.5,0.4,0.7,1.1,0.6,1.7   c0,0-0.1,0-0.1,0c0,0-0.1,0-0.1,0c-0.1,0-0.3,0-0.4,0c0,0,0,0,0,0c-0.2,0-0.4,0.1-0.6,0.1c0,0,0,0-0.1,0c-0.2,0.1-0.3,0.1-0.5,0.2   c0,0-0.1,0-0.1,0c-0.2,0.1-0.4,0.2-0.5,0.3c0,0,0,0,0,0c0,0-0.1-0.1-0.1-0.1c-0.1-0.1-0.1-0.1-0.2-0.2c0,0-0.1-0.1-0.1-0.1   c0,0,0,0,0,0c0.1-0.1,0.2-0.3,0.3-0.5c0,0,0-0.1,0.1-0.1c0.1-0.1,0.1-0.2,0.1-0.4c0-0.1,0-0.1,0.1-0.2c0-0.1,0.1-0.2,0.1-0.4   c0-0.1,0-0.1,0-0.2c0-0.2,0-0.4,0-0.5c0-0.1,0-0.2,0-0.2C38.6,7.7,39.2,7.9,39.7,8.4z M34,6c0.9,0,1.6,0.6,1.9,1.4   C36,7.6,36,7.8,36,8c0,0.1,0,0.3,0,0.4c0,0,0,0.1,0,0.1c0,0.1-0.1,0.2-0.1,0.3c0,0,0,0.1,0,0.1c-0.1,0.1-0.1,0.2-0.2,0.3   c-0.1,0-0.3-0.1-0.5-0.1c-0.1,0-0.2-0.1-0.3-0.1c-0.2,0-0.4,0-0.6,0c-0.1,0-0.3,0-0.4,0c-0.2,0-0.4,0-0.6,0c-0.1,0-0.2,0-0.3,0.1   c-0.2,0-0.3,0.1-0.5,0.1c-0.1-0.1-0.2-0.2-0.2-0.3c0,0,0-0.1,0-0.1c0-0.1-0.1-0.2-0.1-0.3c0,0,0-0.1,0-0.1c0-0.1,0-0.3,0-0.4   c0-0.2,0-0.4,0.1-0.5c0,0,0,0,0-0.1C32.4,6.6,33.1,6,34,6z M28.4,8.3c0.4-0.5,1.1-0.7,1.7-0.6c0,0.1,0,0.2,0,0.2c0,0.2,0,0.4,0,0.5   c0,0.1,0,0.1,0,0.2c0,0.1,0.1,0.2,0.1,0.4c0,0.1,0,0.1,0.1,0.2c0,0.1,0.1,0.2,0.1,0.4c0,0,0,0.1,0.1,0.1c0.1,0.2,0.2,0.3,0.3,0.5   c0,0,0,0,0,0c0,0-0.1,0.1-0.1,0.1c-0.1,0.1-0.1,0.1-0.2,0.2c0,0-0.1,0.1-0.1,0.1c0,0,0,0,0,0c-0.1-0.1-0.3-0.2-0.5-0.3   c0,0-0.1,0-0.1-0.1c-0.1-0.1-0.2-0.1-0.4-0.1c-0.1,0-0.1,0-0.2-0.1c-0.1,0-0.2-0.1-0.4-0.1c-0.1,0-0.1,0-0.2,0c-0.2,0-0.4,0-0.5,0   c-0.1,0-0.2,0-0.2,0C27.7,9.4,27.9,8.8,28.4,8.3z M28.4,19.7C28.3,19.7,28.3,19.7,28.4,19.7c-0.5-0.5-0.7-1.1-0.6-1.7   c0,0,0.1,0,0.1,0c0,0,0.1,0,0.1,0c0.4,0,0.7-0.1,1.1-0.1c0,0,0,0,0,0c0.2-0.1,0.4-0.1,0.5-0.2c0,0,0.1,0,0.1,0   c0.2-0.1,0.4-0.2,0.5-0.3c0,0,0,0,0,0c0,0,0.1,0.1,0.1,0.1c0.1,0.1,0.1,0.1,0.2,0.2c0,0,0.1,0.1,0.1,0.1c0,0,0,0,0,0   c-0.1,0.1-0.2,0.3-0.3,0.5c0,0,0,0.1-0.1,0.1c-0.1,0.1-0.1,0.2-0.1,0.4c0,0.1,0,0.1-0.1,0.2c0,0.1-0.1,0.2-0.1,0.4   c0,0.1,0,0.1,0,0.2c0,0.2,0,0.4,0,0.5c0,0.1,0,0.2,0,0.2C29.4,20.3,28.8,20.1,28.4,19.7z M34,22c-0.9,0-1.6-0.6-1.9-1.4   C32,20.4,32,20.2,32,20c0-0.1,0-0.3,0-0.4c0,0,0-0.1,0-0.1c0-0.1,0.1-0.2,0.1-0.3c0,0,0-0.1,0-0.1c0.1-0.1,0.1-0.2,0.2-0.3   c0.1,0,0.3,0.1,0.4,0.1c0.1,0,0.2,0.1,0.4,0.1c0.1,0,0.3,0,0.4,0c0.1,0,0.3,0,0.4,0c0.1,0,0.3,0,0.4,0c0.1,0,0.3,0,0.4,0   c0.1,0,0.2-0.1,0.4-0.1c0.1,0,0.3-0.1,0.4-0.1c0.1,0.1,0.2,0.2,0.2,0.3c0,0,0,0.1,0,0.1c0,0.1,0.1,0.2,0.1,0.3c0,0,0,0.1,0,0.1   c0,0.1,0,0.3,0,0.4c0,0.2,0,0.4-0.1,0.5c0,0,0,0,0,0.1C35.6,21.4,34.9,22,34,22z M38,20.2c0-0.1,0-0.2,0-0.2c0-0.2,0-0.4,0-0.5   c0-0.1,0-0.1,0-0.2c0-0.1-0.1-0.2-0.1-0.4c0-0.1,0-0.1-0.1-0.2c0-0.1-0.1-0.2-0.1-0.4c0,0,0-0.1-0.1-0.1c-0.1-0.2-0.2-0.3-0.3-0.5   c0,0,0,0,0,0c0,0,0.1-0.1,0.1-0.1c0.1-0.1,0.1-0.1,0.2-0.2c0,0,0.1-0.1,0.1-0.1c0,0,0,0,0,0c0.2,0.1,0.3,0.2,0.5,0.3   c0,0,0.1,0,0.1,0c0.2,0.1,0.3,0.1,0.5,0.2c0,0,0,0,0,0c0.2,0.1,0.4,0.1,0.6,0.1c0,0,0,0,0,0c0.1,0,0.3,0,0.4,0c0,0,0.1,0,0.1,0   c0,0,0.1,0,0.1,0c0.1,0.6-0.1,1.2-0.6,1.7C39.2,20.1,38.6,20.3,38,20.2z M60.1,94h-2.5c-0.5,0-1-0.3-1.1-0.8   c-0.4-1.3-1.7-2.2-3-2.2h-6.8c-1.4,0-2.6,0.9-3,2.2c-0.2,0.5-0.6,0.8-1.1,0.8h-2.5l-1.8-20h23.8L60.1,94z M63,72H37v-4h26V72z    M83.6,48.6c-2-1.1-6.3-3.5-7.8-6.6c-1.5-3,0.1-5.9,0.9-6.9c0.1,0,0.1-0.1,0.2-0.1c1.3,0,4.6,0.4,6.2,3.5   C84.5,41.5,84,46.4,83.6,48.6z"/>
</g>
<g id="sunflower"/>
<g id="sprinkle"/>
<g id="water_hose"/>
<g id="planting"/>
<g id="fertilizer"/>
<g id="bee"/>
<g id="butterfly"/>
<g id="shovel"/>
<g id="ladybug"/>
<g id="watering"/>
<g id="hanging_pot"/>
<g id="green_house"/>
</svg>