<?xml version='1.0' encoding='utf-8'?>
<svg xmlns="http://www.w3.org/2000/svg" enable-background="new 0 0 392.275 405.146" viewBox="0 0 392.28 405.15"> <path d="m112.559,136.058c1.311-2.681 2.839-6.709 2.839-9.814 0-9.964.319-8.959 6.814-15.736 2.974-3.103 14.996-3.835 12.437-11.511-.796-2.389-19.299-26.526-22.906-26.526-16.427,0-30.261,14.62-29.847,31.229 .311,12.448 19.368,48.864 30.663,32.358"/> <path d="m111.422,84.957c7.192.371 19.711,6.276 18.17,15.332-1.028,6.036-15.032,6.878-18.736,13.624-2.425,4.418 3.712,19.869-4.541,22.146-6.334,1.748-14.483-16.753-15.902-20.438-2.57-6.673-3.491-12.898-2.268-18.741 2.078-9.925 19.474-30.245 27.252-14.76l-3.975,2.837" fill="#b6f261"/> <path d="m172.742,59.973c-12.902,19.419-25.516-6.038-27.463-17.743-1.515-9.104 3.305-18.11 1.789-27.721-1.024-6.49-5.818-16.591 6.478-14.129 16.885,3.38 35.682,19.318 43.294,34.542 2.24,4.48.726,19.533-3.654,23.354-7.898,6.89-12.074-.843-20.444,1.697"/> <path d="m177.29 50.89c3.362 3.565 8.467 6.49 12.487 3.976 17.753-11.106-13.514-39.114-21.509-43.908-25.67-15.391-14.584 7.143-16.866 24.289-1.214 9.122-0.847 19.095 7.716 24.449 7.543 4.716 12.417-8.338 18.172-8.806" fill="#b6f261"/> <path d="m203.97,113.912c-19.265,9.723-3.856,19.683 3.976,23.854 7.08,3.771 11.722.938 13.754,10.425 .742,3.465 4.346,8.054 7.821,8.305 14.354,1.039 13.418-24.636 11.072-34.062-4.643-18.665-35.865-38.191-36.623-8.522"/> <path d="m210.219,109.942c-.765,6.176-14.373,15.125-6.528,20.727 6.138,4.383 15.485,2.94 21.289,9.365 .951,1.053.142,7.386 1.137,7.945 9.588,5.392 15.402-6.641 11.871-19.251-2.036-7.27-5.111-20.047-13.008-23.898-6.255-3.051-15.471-3.351-14.761,5.112" fill="#b6f261"/> <path d="m114.26 84.392c15.204 1.14 34.375-0.263 39.471 18.085 5.399 19.439 8.104 30.633 5.765 50.391-2.577 21.772-4.747 33.796-15.05 52.936-2.646 4.916-13.253 8.389-18.378 11.039-11.435 5.914-11.258 7.698-14.646 20.284 10.185-2.037 15.905-8.614 24.605-9.823 19.22-2.671 15.59 0.749 18.549 19.472 6.539-10.46 10.091-17.406 20.554-23.684 9.957-5.974 19.147 7.019 28.839 11.196 13.759 5.932 21.491 8.165 15.628-7.667-3.526-9.521-17.166-11.499-24.824-18.909-17.495-16.927-16.715-41.683-14.8-65.125 2.234-27.353 31.193-34.629 48.416-14.481-15.686-20.633-30.152-23.635-53.375-12.487 8.134-37.631 8.047-66.855-11.921-100.5 11.529 31.044 9.344 51.672 3.405 83.466-12.475-17.064-21.76-22.27-42.971-19.859-18.266 2.077-33.192 12.665-25.163 32.917-1.724-11.66 3.372-26.679 15.896-27.252"/> <path d="m104.042,248.484c-5.201,11.192-9.743,15.728-22.711,17.882-13.77,2.286-10.932,9.883-12.324,23.104-.823,7.816-29.732,21.643-38.126,24.517-13.46,4.607-28.623,14.661-28.474,32.152 .19,22.304 28.422,18.562 42.372,19.697 15.524,1.264 26.346-.962 41.757-4.386 4.843-1.076 15.416-5.698 20.346-4.521 6.212,1.482 9.212,10.887 16.084,11.616l56.414,5.987c15.031,1.596 32.346-6.872 46.712-10.819 15.429-4.239 22.285,4.859 37.495,7.976 17.338,3.552 38.976,0 56.669,0 15.984,0 22.673-6.064 36.487-14.884 8.243-5.262-2.259-28.563-7.659-35.901-11.573-15.726-13.951-21.973-32.23-26.092-20.524-4.624-33.656-4.007-46.052-20.908-6.941-9.466-20.5-24.225-31.057-29.4-1.347-.66-6.211,4.117-7.386,3.41-1.915-1.152-2.521-5.343-4.541-6.249-8.476-3.803-22.986-12.046-33.458-17.404-20.947-10.718-28.227-.92-38.652,18.547-1.081-6.907-1.804-13.93-1.703-21.015-12.448,2.029-19.101,5.152-28.389,9.658-3.876,1.881-10.458-.772-12.866,3.292-2.704,4.563-5.734,9.893-8.708,13.741"/> <path d="m104.608,351.25c1.744-18.732 4.917-30.442 12.492-47.696l-3.976,18.741 9.088-12.498c-1.71,6.38-7.657,15.443-7.951,21.581-.453,9.438 6.244,22.625 8.776,31.801 1.039,3.765 27.037,3.604 30.971,3.968 19.835,1.837 31.288,2.125 49.964-2.557 24.289-6.088 25.323-5.525 28.958-30.939 4.444,14.067 4.151,23.11 19.872,26.682 .304-9.374 2.84-17.244 5.678-26.115 .315,12.337-.541,20.337 5.838,30.763 2.938,4.802 24.192,1.403 29.39,1.36 5.375-.045 64.298,2.979 59.813-15.374-5.108-20.903-11.907-45.995-35.534-50.724-11.613-2.324-25.514-7.602-37.366-7.479-11.478.119-21.038,4.458-32.931,3.41 8.812-3.196 17.693-5.894 26.688-8.517-10.608-13.139-29.913-45.2-47.125-30.657-3.099-11.063-2.156-13.541-12.692-17.324-9.706-3.484-17.294-7.12-26.167-12.397-17.821-10.601-27.516,15.128-35.525,28.579-1.323-9.463-2.646-18.926-3.97-28.389-24.797,4.274-34.04,11.862-46.845,33.219-3.68,6.137-7.509,5.248-13.909,8.233-13.523,6.308-12.258,2.368-14.177,20.104-2.248,20.77-76.794,31.373-63.771,58.588 8.429,17.613 26.565,12.419 45.225,13.646 14.552.957-.949-31.593-5.32-36.696 18.602,4.448 16.291,21.455 15.897,36.335l38.609-9.648" fill="#d59758"/> <path d="m82.467 89.504c-2.827 5.943-3.914 12.391-2.273 18.73-6.634-7.186-2.668-11.925 2.273-18.73"/> <path d="m118.237,127.541c-1.179,3.507-1.897,7.21-2.839,10.79 5.084-5.397 7.945-11.867 2.839-18.17 .13.711.031,7.819 0,7.38"/> <path d="m143.787,12.853c2.121,6.041 1.808,12.785-.565,18.73 .188-6.243.377-12.486.565-18.73"/> <path d="m198.292,54.294c-1.382,4.579-3.335,7.374-8.517,8.517 6.233.924 9.22-2.295 8.517-8.517"/> <path d="m155.14 121.86c4.595 9.927 2.127 18.564 1.137 28.955-0.896-9.501 0.268-19.824-1.137-28.955"/> <path d="m364.09 367.72c5.47-0.905 20.121-2.885 23.849-6.82 10.028-10.59-9.347-43.367-20.905-46.409-29.423-7.743-36.188 5.511-42.76 32.892-5.859 24.409 27.537 22.936 39.816 20.337"/> <path d="m335.13 363.17c-7.565-12.336-5.701-43.477 12.492-48.262 16.643-4.377 22.149 16.114 32.08 22.712 6.022 4.001 9.152 9.833 4.826 17.033-7.37 12.268-37.722 8.517-49.398 8.517" fill="#d59758"/> <path d="m314.12 383.61c-3.697-1.328-12.218-3.634-14.76-6.81-7.405-9.249 5.399-34.632 16.413-34.632 24.088 0 26.684 4.334 32.634 27.067 4.928 18.828-26.512 15.622-34.287 14.375"/> <path d="m338.54 379.07c20.063-22.084-18.283-45.988-32.365-18.741-10.13 19.6 15.485 18.741 32.365 18.741" fill="#d59758"/> <path d="m198.292,103.127 3.976-.571c.19,1.137.381,2.273.571,3.41-2.797-.352-5.604-.815-8.517-1.137-.739.238 6.686-2.398 3.97-1.702"/> <path d="m226.12 238.26c-14.321-5.874-27.938-12.047-41.72-19.099-13.367-6.84-23.565 14.081-28.688 23.646-1.081-6.907-1.804-13.93-1.703-21.015l-19.574 3.191c-7.215 1.177-7.774 7.089-15.63 6.467 2.481-13.338 24.569-12.067 30.43-24.043 8.955-18.296 11.824-29.519 14.145-49.774 3.906-34.099 2.331-74.517-40.028-76.08 21.365-0.788 34.494 5.751 44.286 25.55 3.667-16.827 13.148-38.44 7.945-55.647 3.448 15.8-10.233 68.136 1.708 72.681-2.047-10.413 19.261-14.15 27.818-11.921-15.308 1.246-28.403 15.379-29.853 30.165-1.315 13.421-5.333 47.9 4.775 57.706 7.382 7.161 13.919 15.416 23.294 19.765 10.282 4.77 12.332 16.37 22.795 18.408" fill="#6bb336"/> <path d="m109.72 226.34c0.191 6.824-2.664 13.284-7.952 17.6 2.626-5.425 6.512-13.224 7.952-17.6"/> <path d="m249.393,252.454c3.098,1.896 6.599,3.871 9.903,5.522 8.24,4.118 13.858,5.778 22.994,7.186 6.611,1.019 12.55-9.693 15.364.355 2.398,8.564-33.154,43.242-40.447,51.564-28.18,32.16-59.673,80.78-105.754,86.688-20.18,2.588-38.815,3.931-39.46-19.019-.618-21.991 3.564-40.931 15.897-59.617 18.469-27.985 43.072-53.381 64.118-79.465 8.158-10.11 21.107-35.578 34.673-37.502 .315,14.082 9.316,41.738 22.712,44.288" fill="#7a9999"/> <path d="m233.496,260.405c-16.854.588-7.779,15.038 1.137,9.082l-6.243-2.839c2.047.363 4.15.098 6.243.565 .701-3.556 1.388-5.63 1.702-9.082 .17-.511-3.478,2.918-2.839,2.274" fill="#7a9999"/> <path d="m242.013,247.341c-1.653,2.979-3.307,6.584-3.976,9.088-.567-.188-.756.002-.565.571 2.895-2.825 4.985-7.167 5.678-11.927-.288.887-1.854,2.821-1.137,2.268" fill="#7a9999"/> <path d="m230.66 262.68c-2.222 1.017-3.909 1.016-5.678 2.839 2.694 0.047 3.415-1.722 5.678-2.839" fill="#b8cccc"/> <path d="m337.97 84.957c-10.83 18.672-23.102 42.768-37.477 58.209-12.877 13.831-18.582 14.047-24.414 31.505 6.556 1.31 12.956 4.661 16.509 10.429 5.23 8.495 8.529 2.298 16.403-2.526 7.963-4.878 8.76-20.708 18.99-28.381 16.621-12.466 31.451-24.264 46.042-38.859 7.202-7.204 19.654-35.886 10.146-43.352-19.534-15.339-29.873 6-46.199 12.975"/> <path d="m349.89 132.09c10.869-9.357 19.514-18.811 26.121-31.228 2.486-4.672 8.738-13.494 7.358-18.676-3.413-12.819-13.107-13.279-22.689-6.88-14.31 9.556-21.075 16.091-30.662 30.663-7.413 11.267-13.978 23.188-20.952 34.738-7.048 11.671-25.851 17.602-27.31 31.128 6.831 1.264 12.129 12.607 16.468 13.053 9.522 0.978 9.087-12.656 11.836-16.064 12.093-14.994 24.48-24.978 39.83-36.734" fill="#c60"/> <path d="m376.013,78.714c-3.747-1.064-10.979,7.235-5.965,8.234 4.816.959 6.598-4.135 5.965-8.234"/> <path d="m295.95 155.36c5.356 3.909 9.44 9.542 11.355 15.897-5.154-5.041-10.825-9.337-17.599-11.927 0.017-5e-3 8.145-4.736 6.244-3.97"/> <path d="m307.31 127.54c-3.086 8.499-8.818 13.646-15.331 19.307 5.104-5.775 12.129-14.117 15.331-19.307"/> <path d="m383.96 67.924c4.714 3.064 7.146 7.933 7.951 13.629 1.201-6.951-0.341-13.293-7.951-13.629"/> <path d="m261.32 195.68c4.905-5.654 8.812-12.611 13.059-19.019 3.133-4.729 15.121 5.739 17.074 9.159 5.815 10.184-7.518 15.783-15.372 22.923-0.947-7.472-7.128-12.848-14.761-13.063"/> <path d="m278.354,201.353c19.489-11.128-.881-26.295-6.815-12.487-2.715,6.316.255,6.911 6.815,12.487" fill="#e6b800"/> <path d="m307.88 187.72c-7.148 2.666-13.568 8.173-17.033 13.629 5.681-4.526 11.616-8.772 17.033-13.629"/> <path d="m280.06 182.62c-2.722 4.277-5.637 8.704-7.951 13.058 3.728-1.309 7.718-6.807 11.927-10.79-1.207-2.061-2.411-1.454-3.976-2.268" fill="#fff2cc"/> <path d="m286.87,188.295c-3.418,3.818-7.299,7.792-9.653,11.927 .565-.188.754,0 .565.565 3.759-4.38 9.332-7.344 9.088-12.492" fill="#804000"/> <path d="m276.65,181.48-7.951,11.921c.568-.189.757.001.566.571 .862-.522.942.302 1.137.571 3.062-4.768 6.895-10.331 6.248-13.063" fill="#804000"/> <path d="m261.32 196.24c-3.272 6.14 5.453 20.604 13.059 14.766 6.372-4.892-9.689-14.26-13.059-14.766"/> <path d="m264.16 200.22c1.21 4.315 2.249 7.301 7.38 6.243-1.447-3.878-3.976-4.604-7.38-6.243" fill="#804000"/> <path d="m242.58 259.27c-2.959 7.326-1.397 18.56-13.063 17.033-23.096-3.021 10.79-25.526 10.79-37.241 0-7.513 19.605-45.572 28.389-35.999 3.942 4.297-13.82 18.963-16.747 23.56-6.675 10.481-0.572 23.416-9.369 32.647"/> <path d="m260.75 208.17c-4.5 6.202-9.563 11.98-14.76 17.604 4.052-6.013 10.861-14.646 14.76-17.604" fill="#7a9999"/> <path d="m240.31 246.21c-6.436-13.316-13.262-21.611-13.629-38.043-12.579 1.784-23.732 23.941-31.327 33.354l-67.275 83.378c-13.672 16.945-16.086 37.915-16.086 58.716 0 23.663 18.59 22.831 39.46 20.154 47.127-6.042 79.908-57.191 108.64-89.979 7.739-8.832 40.97-42.142 36.146-50.83-1.701-3.063-13.205 2.314-19.02 1.419-7.73-1.19-12.565-5.249-19.872-7.38-6.188-1.805-7.197-7.609-12.492-1.708 13.324 7.028 32.915 21.58 47.696 10.79-25.782 33.144-52.032 67.885-82.328 97.052-12.465 12-31.539 32.811-49.777 34.838-8.583 0.955-24.622 5.174-33.124 2.105-12.698-4.582-9.647-11.582-9.647-23.598 0-18.435 5.334-38.086 17.113-52.698 29.261-36.3 56.886-75.11 88.493-109.36-1.506 13.574 7.604 25.234 14.76 35.764 0.756-1.322 1.514-2.645 2.272-3.969"/> <path d="m218.16 271.2c2.232 1.846 1.153 4.477 5.112 5.678-32.648 39.124-66.77 79.185-102.77 115.25-3.734-17.988 28.07-41.442 39.026-53.662 19.262-21.482 42.975-43.249 58.629-67.27" fill="#b8cccc"/> <path d="m221 224.63-59.037 72.725c-16.157 19.903-34.077 38.393-40.326 64.114l66.647-78.342c7.081-8.324 14.188-16.623 21.299-24.921 12.94-15.099 18.195-15.616 11.417-33.576" fill="#598080"/> <path d="m262.46 268.36c6.789 1.759 13.448 3.855 20.438 4.536-41.035 47.114-77.134 109.37-140.81 124.35 20.692-20.668 40.137-42.841 60.183-64.158 18.993-20.198 45.997-42.444 60.189-64.725" fill="#598080"/> <path d="m227.25 241.66c-18.959 22.305-37.918 44.609-56.878 66.914-12.688 14.927-48.922 43.478-50.436 64.247l62.343-72.729c9.436-11.009 48.593-47.153 44.971-58.432" fill="#598080"/> <path d="m252.23 263.24-118.1 133.43c10.199-3.135 18.746-16.497 26.108-24.146l43.938-45.645c18.825-19.557 37.009-39.74 55.438-59.67-2.07-0.903-5.343-3.413-7.386-3.969" fill="#598080"/> <path d="m226.12 277.44c1.921 0.217 2.629 1.656 5.112 0.566-18.79 18.596-35.5 39.563-53.375 59.052-12.582 13.717-39.047 53.836-55.642 57.909 33.447-40.161 70.451-77.341 103.9-117.53" fill="#b8cccc"/> <path d="m286.3 271.76c-17.274 7.321-33.403 35.574-45.557 49.528-11.993 13.771-24.005 32.432-38.475 43.302-20.594 15.473-33.015 26.257-60.183 32.648 23.354-3.404 40.083-10.177 58.48-27.252 29.909-27.76 64.802-65.315 85.735-98.226" fill="#b8cccc"/> <path d="m119.37 362.61c10.028-31.346 29.438-52.702 50.17-77.578 8.708-10.45 17.148-21.12 25.67-31.723 8.003-9.958 27.19-25.818 28.063-38.889-30.392 32.938-56.966 70.254-85.1 105.16-9.57 11.873-18.995 27.408-18.803 43.034" fill="#b8cccc"/> <path d="m291.977,282.55c-1.02.992-1.655,2.438-2.839,2.839 4.796,1.018 9.953,2.344 14.766,3.405-3.916-1.68-8.157-4.089-11.927-6.244"/> <path d="m351.028,371.688c-.394,1.39-.588,2.67-1.137,3.976 4.221-1.131 9.056-2.419 13.058-3.976-3.68.066-9.636-.089-11.921,0"/> <path d="m235.77 364.88-16.468 4.536 22.146-2.269-5.678-2.267"/> <path d="m104.61 359.77c-6.849 2.479-14.406 3.836-21.575 5.678 8.609-1.142 17.434-1.976 26.121-2.839-1.273-0.422-3.898-2.514-4.546-2.839"/> <path d="m66 285.96c-1.831 6.514-8.535 8.818-14.76 11.921 4.863-3.592 10.442-7.849 14.76-11.921"/> <path d="m0.139 348.41c2.407 3.92 4.185 8.369 6.244 12.486-5.138-2.512-6.925-7.325-6.244-12.486"/> </svg>