<?xml version='1.0' encoding='utf-8'?>
<svg xmlns="http://www.w3.org/2000/svg" enable-background="new 0 0 434.67 437.02" version="1.1" viewBox="0 0 434.67 437.02"> <g fill="#E8E1C4"> <path d="m6.29 353.08h-5.87v-79.99c0.98-2.02 1.95-4.05 2.93-6.08 0.98 1.88 1.95 3.76 2.93 5.65 0.01 26.82 0.01 53.62 0.01 80.42z"/> <path d="m16.49 353.08h-5.87c0-26.91-0.01-53.81-0.01-80.72 0.98-2.04 1.95-4.08 2.93-6.12 0.98 1.9 1.95 3.8 2.93 5.71 0.01 27.05 0.02 54.09 0.02 81.13z"/> <path d="m26.69 353.08h-5.87c-0.01-27.14-0.02-54.27-0.03-81.41 0.98-2.05 1.95-4.1 2.93-6.16 0.98 1.92 1.95 3.84 2.93 5.77 0.02 27.27 0.03 54.54 0.04 81.8z"/> <path d="m36.89 353.08h-5.87c-0.01-27.36-0.02-54.71-0.04-82.07 0.98-2.06 1.95-4.13 2.93-6.2 0.98 1.94 1.96 3.88 2.93 5.83 0.02 27.49 0.03 54.97 0.05 82.44z"/> <path d="m47.08 353.08h-5.87c-0.01-27.57-0.03-55.13-0.04-82.7 0.98-2.07 1.95-4.15 2.93-6.23 0.98 1.96 1.96 3.92 2.93 5.89 0.02 27.69 0.04 55.36 0.05 83.04z"/> <path d="m57.28 353.08h-5.87c-0.02-27.76-0.03-55.52-0.05-83.28 0.98-2.08 1.95-4.17 2.93-6.26l2.94 5.94c0.01 27.87 0.03 55.74 0.05 83.6z"/> <path d="m67.48 353.08h-5.87c-0.02-27.95-0.04-55.89-0.05-83.84 0.98-2.09 1.95-4.19 2.93-6.29 0.98 1.99 1.96 3.99 2.94 5.99 0.01 28.05 0.03 56.1 0.05 84.14z"/> <path d="m77.67 353.08h-5.87l-0.06-84.36c0.98-2.1 1.95-4.21 2.93-6.32 0.98 2.01 1.96 4.02 2.94 6.04 0.02 28.22 0.04 56.43 0.06 84.64z"/> <path d="m87.87 353.08h-5.87l-0.06-84.84c0.98-2.11 1.95-4.23 2.93-6.34 0.98 2.02 1.96 4.05 2.94 6.08 0.02 28.37 0.04 56.74 0.06 85.1z"/> <path d="m98.07 353.08h-5.87l-0.06-85.29c0.98-2.12 1.95-4.24 2.93-6.37 0.98 2.04 1.96 4.08 2.94 6.12 0.02 28.52 0.04 57.03 0.06 85.54z"/> <path d="m108.26 353.08h-5.87c-0.02-28.57-0.04-57.13-0.06-85.7 0.98-2.13 1.95-4.25 2.93-6.38 0.98 2.05 1.96 4.11 2.94 6.16 0.03 28.64 0.04 57.28 0.06 85.92z"/> <path d="m118.46 353.08h-5.87c-0.02-28.69-0.04-57.39-0.06-86.08 0.98-2.13 1.95-4.27 2.93-6.4 0.98 2.06 1.96 4.13 2.94 6.2l0.06 86.28z"/> <path d="m128.66 353.08h-5.87c-0.02-28.81-0.04-57.62-0.06-86.42 0.98-2.14 1.95-4.28 2.93-6.42 0.98 2.08 1.96 4.15 2.94 6.23 0.02 28.88 0.04 57.75 0.06 86.61z"/> <path d="m138.85 353.08h-5.87c-0.02-28.91-0.03-57.82-0.05-86.73 0.98-2.14 1.95-4.28 2.93-6.43 0.98 2.09 1.96 4.17 2.94 6.27 0.02 28.97 0.04 57.93 0.05 86.89z"/> <path d="m149.05 353.08h-5.87c-0.02-29-0.03-58-0.05-87.01 0.98-2.14 1.95-4.29 2.93-6.44l2.94 6.3c0.02 29.06 0.04 58.11 0.05 87.15z"/> <path d="m159.25 353.08h-5.87c-0.01-29.08-0.03-58.16-0.04-87.24 0.98-2.15 1.95-4.29 2.93-6.44 0.98 2.11 1.96 4.21 2.94 6.32 0.01 29.12 0.03 58.24 0.04 87.36z"/> <path d="m169.45 353.08h-5.87c-0.01-29.15-0.02-58.3-0.04-87.45 0.98-2.15 1.96-4.3 2.93-6.45 0.98 2.11 1.96 4.23 2.94 6.35 0.01 29.19 0.03 58.37 0.04 87.55z"/> <path d="m179.64 353.08h-5.87c-0.01-29.21-0.02-58.41-0.03-87.61 0.98-2.15 1.96-4.3 2.93-6.45 0.98 2.12 1.96 4.24 2.94 6.37l0.03 87.69z"/> <path d="m189.84 353.08h-5.87c-0.01-29.25-0.02-58.5-0.02-87.75 0.98-2.15 1.96-4.3 2.93-6.45 0.98 2.13 1.96 4.26 2.94 6.39 0.01 29.28 0.01 58.54 0.02 87.81z"/> <path d="m200.04 353.08h-5.87c-0.01-29.28-0.01-58.56-0.02-87.84 0.98-2.15 1.96-4.3 2.93-6.44 0.98 2.13 1.96 4.27 2.94 6.4 0.01 29.29 0.01 58.59 0.02 87.88z"/> <path d="m210.23 353.08h-5.87c0-29.3-0.01-58.61-0.01-87.91 0.98-2.15 1.96-4.29 2.94-6.44 0.98 2.14 1.96 4.28 2.94 6.42v87.93z"/> <path d="m220.43 353.08h-5.87v-87.94c0.98-2.14 1.96-4.29 2.94-6.43 0.98 2.14 1.96 4.29 2.93 6.43v87.94z"/> <path d="m230.63 353.08h-5.87v-87.93c0.98-2.14 1.96-4.28 2.94-6.42 0.98 2.15 1.96 4.29 2.93 6.44v87.91z"/> <path d="m240.82 353.08h-5.87c0-29.29 0.01-58.59 0.01-87.89 0.98-2.14 1.96-4.27 2.94-6.4 0.98 2.15 1.96 4.3 2.93 6.44 0 29.29 0 58.57-0.01 87.85z"/> <path d="m251.02 353.08h-5.87c0.01-29.27 0.01-58.54 0.02-87.81 0.98-2.13 1.96-4.26 2.94-6.39 0.98 2.15 1.96 4.3 2.93 6.45 0 29.26-0.01 58.51-0.02 87.75z"/> <path d="m261.22 353.08h-5.87c0.01-29.23 0.02-58.46 0.03-87.7 0.98-2.12 1.96-4.25 2.94-6.37 0.98 2.15 1.96 4.3 2.93 6.45-0.01 29.21-0.02 58.42-0.03 87.62z"/> <path d="m271.41 353.08h-5.87c0.01-29.18 0.02-58.37 0.03-87.55 0.98-2.12 1.96-4.23 2.94-6.35 0.98 2.15 1.96 4.3 2.93 6.45 0 29.16-0.01 58.31-0.03 87.45z"/> <path d="m281.61 353.08h-5.87c0.01-29.12 0.03-58.24 0.04-87.36 0.98-2.11 1.96-4.22 2.94-6.32 0.98 2.15 1.95 4.3 2.93 6.44-0.01 29.08-0.02 58.16-0.04 87.24z"/> <path d="m291.81 353.08h-5.87c0.01-29.05 0.03-58.1 0.04-87.15l2.94-6.3c0.98 2.15 1.95 4.29 2.93 6.44-0.01 29.01-0.03 58.01-0.04 87.01z"/> <path d="m302.01 353.08h-5.87c0.02-28.96 0.03-57.93 0.05-86.89l2.94-6.27c0.98 2.14 1.95 4.29 2.93 6.43-0.02 28.91-0.04 57.82-0.05 86.73z"/> <path d="m312.2 353.08h-5.87c0.02-28.87 0.04-57.74 0.05-86.61 0.98-2.08 1.96-4.16 2.94-6.23 0.98 2.14 1.95 4.28 2.93 6.42-0.01 28.81-0.03 57.62-0.05 86.42z"/> <path d="m322.4 353.08h-5.87l0.06-86.28c0.98-2.07 1.96-4.14 2.94-6.2 0.98 2.14 1.95 4.27 2.93 6.4-0.02 28.7-0.04 57.39-0.06 86.08z"/> <path d="m332.6 353.08h-5.87l0.06-85.92c0.98-2.06 1.96-4.11 2.94-6.16 0.98 2.13 1.95 4.26 2.93 6.38-0.02 28.57-0.04 57.14-0.06 85.7z"/> <path d="m342.79 353.08h-5.87l0.06-85.53c0.98-2.04 1.96-4.09 2.94-6.12 0.98 2.12 1.95 4.25 2.93 6.37-0.02 28.43-0.04 56.85-0.06 85.28z"/> <path d="m352.99 353.08h-5.87c0.02-28.37 0.04-56.74 0.06-85.1 0.98-2.03 1.96-4.06 2.94-6.08 0.98 2.12 1.95 4.23 2.93 6.34l-0.06 84.84z"/> <path d="m363.19 353.08h-5.87c0.02-28.21 0.04-56.43 0.06-84.64 0.98-2.02 1.96-4.03 2.94-6.04 0.98 2.11 1.95 4.22 2.93 6.32-0.02 28.13-0.04 56.25-0.06 84.36z"/> <path d="m373.38 353.08h-5.87c0.02-28.05 0.04-56.09 0.06-84.14 0.98-2 1.96-4 2.94-5.99 0.98 2.1 1.95 4.2 2.93 6.29-0.02 27.95-0.04 55.9-0.06 83.84z"/> <path d="m383.58 353.08h-5.87c0.02-27.87 0.04-55.74 0.05-83.61 0.98-1.98 1.96-3.96 2.93-5.94 0.98 2.09 1.95 4.18 2.93 6.26-0.01 27.77-0.02 55.53-0.04 83.29z"/> <path d="m393.78 353.08h-5.87c0.02-27.68 0.03-55.36 0.05-83.04 0.98-1.97 1.96-3.93 2.94-5.89 0.98 2.08 1.95 4.16 2.93 6.23-0.02 27.57-0.04 55.14-0.05 82.7z"/> <path d="m403.98 353.08h-5.87c0.01-27.48 0.03-54.96 0.04-82.43 0.98-1.95 1.96-3.89 2.93-5.83 0.98 2.07 1.95 4.13 2.93 6.2-0.01 27.35-0.02 54.71-0.03 82.06z"/> <path d="m414.17 353.08h-5.87c0.01-27.27 0.02-54.53 0.03-81.8 0.98-1.93 1.96-3.85 2.93-5.77 0.98 2.06 1.95 4.11 2.93 6.16 0 27.14-0.01 54.28-0.02 81.41z"/> <path d="m424.37 353.08h-5.87c0.01-27.04 0.01-54.08 0.02-81.12 0.98-1.91 1.95-3.81 2.93-5.71 0.98 2.04 1.95 4.08 2.93 6.12 0 26.9-0.01 53.81-0.01 80.71z"/> <path d="m434.57 353.08h-5.87c0-26.8 0.01-53.61 0.01-80.41 0.98-1.89 1.95-3.77 2.93-5.65 0.98 2.03 1.95 4.05 2.93 6.08v79.98z"/> </g> <path d="m431.43 292.12c-244.51-16.89-426-1.79-427.81-1.63l-0.51-5.98c1.81-0.15 183.76-15.29 428.73 1.63l-0.41 5.98z" fill="#E8E1C4"/> <path d="m431.59 330.74c-244.51-16.89-426-1.79-427.81-1.63l-0.51-5.98c1.81-0.15 183.76-15.29 428.73 1.63l-0.41 5.98z" fill="#E8E1C4"/> <path d="M434.67,350.6C216.59,327.79,36.53,345.92,0,350.13v86.89h434.67V350.6z" fill="#CFD3AE"/> <path d="m380.79 422.18c-16.23-3.96-51.3-3.57-40.91-5.52s35.06-2.41 14.93-6.79c-16.71-3.64-269.43-4.14-354.82-4.21v22.7c110.67 0.04 318.55 0.22 339.89 0.97 29.23 1.01 57.15-3.19 40.91-7.15z" fill="#97A469"/> <path d="m275.23 399.99c-16.23-3.96-51.3-3.57-40.91-5.52s35.06-2.41 14.93-6.79c-11.9-2.59-143.62-3.59-249.26-3.98v22.54c103.95 0.11 218.76 0.35 234.33 0.89 29.23 1.03 57.15-3.18 40.91-7.14z" fill="#97A469" opacity=".5"/> <path d="m434.67 390.62c-49.37-0.56-201.38-2.1-207.64 2.93-7.44 5.98 12.23 3.13 21.85 7.53s-119.35-3.94-112.42 6.26c6.92 10.21 80.97 0.12 96.36 4.31 15.38 4.2-25.33 3.59-15.22 6.59 8.95 2.66 178.17 4.77 217.07 5.22v-32.84z" fill="#6A912D" opacity=".4"/> <path d="m13.46 404.36c9.62-4.4 29.29-1.55 21.85-7.53-1.84-1.48-15.62-2.22-35.31-2.48v29.43c24.34-0.68 42.01-1.44 44.74-2.25 10.12-3-30.6-2.4-15.21-6.59 15.38-4.2 89.43 5.89 96.36-4.31 6.92-10.21-122.05-1.87-112.43-6.27z" fill="#6A912D" opacity=".4"/> <path d="m328.54 5.94c-4.57 3.82-9.21 8.45-14.56 11.12-5.07 2.53-14.96 3.42-16.44-4.04-1.37-6.88 6.73-11.39 12.33-12.31 3.35-0.55 6.86-0.33 10.14 0.5 1.62 0.41 8.53 2.37 8.53 4.73z" fill="#B0CC7E"/> <path d="m328.54 5.9c-6.31 5.64-20.34 19.34-29.09 10.58-2.82-2.83-0.67-3.59 2.05-5.28 3-1.86 6.22-3.36 9.58-4.45 5.55-1.98 11.76-2.26 17.46-0.85z" fill="none"/> <path d="m328.54 5.9c-6.31 5.64-20.34 19.34-29.09 10.58-2.82-2.83-0.67-3.59 2.05-5.28 3-1.86 6.22-3.36 9.58-4.45 5.55-1.98 11.76-2.26 17.46-0.85z" fill="#A6BC72"/> <path d="m125.38 20.84c4.69-1.79 15.33-3.31 16.48 3.92 0.62 3.86-3.43 4.99-6.44 4.36-2.2-0.45-10.93-5.16-10.04-8.28z" fill="#B0CC7E"/> <path d="m125.37 20.86c4.59-1.83 12.78-3.11 15.83 2.09 3.33 5.68-3.18 3.43-6.04 2.51-3.39-1.1-6.82-2.58-9.79-4.6z" fill="none"/> <path d="m125.37 20.86c4.59-1.83 12.78-3.11 15.83 2.09 3.33 5.68-3.18 3.43-6.04 2.51-3.39-1.1-6.82-2.58-9.79-4.6z" fill="#A6BC72"/> <path d="m338.21 42.85c-3.15 2.6-17.73 9.96-17.68 0.63 0.02-3.38 3.92-4.85 6.72-4.95 1.76-0.07 10.96 1.56 10.96 4.32z" fill="#B0CC7E"/> <path d="m338.21 42.82c-3.84 3.27-12.37 8.44-16.77 3.17-2.74-3.29 1.2-3.42 3.73-3.73 4.28-0.51 8.84-0.51 13.04 0.56z" fill="none"/> <path d="m338.21 42.82c-3.84 3.27-12.37 8.44-16.77 3.17-2.74-3.29 1.2-3.42 3.73-3.73 4.28-0.51 8.84-0.51 13.04 0.56z" fill="#A6BC72"/> <path d="m139.3 182.36c-0.96 0.16-1.93 0.26-2.9 0.32-4.37 0.26-8.79-0.08-13.15-0.45-1.29-0.11-2.58-0.24-3.88-0.38-1.42-0.15-2.84-0.31-4.26-0.48-0.03 0-0.06 0-0.09-0.01-0.11-0.01-0.24-0.02-0.35-0.04-4.53-0.55-9.05-1.19-13.55-1.87-4.59-0.74-8.45-4.02-9.82-8.48-1.36-4.4-0.06-9.34 3.3-12.49 3.25-3.05 7.86-4 12.09-2.72 3.08 0.93 6.17 1.87 9.25 2.77 0.97 0.29 1.95 0.56 2.93 0.84 0.35 0.09 0.7 0.19 1.05 0.29 0.5 0.13 1 0.27 1.5 0.4l1.35 0.36c2.02 0.53 4.05 1.04 6.09 1.51 1.56 0.36 3.13 0.7 4.71 0.97 0.71 0.13 1.44 0.25 2.16 0.35 0.07 0.01 0.27 0.05 0.48 0.1 0.63-0.52 1.24-1.06 1.84-1.62-0.06 1.24 0.95 19.51 1.25 20.63z" fill="#EABBA4"/> <path d="m120.38 156.82s-0.5 0.75-1.22 2.03c-0.09 0.16-0.19 0.34-0.29 0.52-2.49 4.59-6.91 14.47-3.73 22.33 0.27 0.68 0.6 1.34 1 1.98 0 0-1.39 0.12-3.63 0.11-8.51-0.06-29.22-2.1-31.9-20.32-0.23-1.53 9.36-12.54 22.26-10.28 12.87 2.25 17.51 3.63 17.51 3.63z" fill="#C6C6C6"/> <path d="m352.67 212.85c-1.75-0.26-3.49-0.56-5.22-0.9-6.46-1.29-12.88-2.96-19.13-5.02-1.7-0.56-3.44-1.05-4.95-2.03-0.86-1.04-2.25-2.22-3.64-2.44-1.79-2.11-6.67-3.37-9.28-4.11-1.59-0.43-3.28-1.09-4.92-0.5-1.33 0.48-4.23 1.72-2.17 3.81-1.96-0.12-2.86 3.12-1.15 4.05-2.03-0.67-3.32 2.22-1.97 3.65 0.31 0.33 2.45 0.76 2.46 0.99-3.21-0.97-4.59 3.62-1.32 4.11 2 0.3 7.87 2.36 9.81 3.05 5.09 1.96 6.13-1.02 11.09-0.39 4.52 0.57 7.45 2.59 11.74 4.07 7.74 2.64 15.57 4.52 23.55 6.21-2.3-4.59-3.69-9.51-4.9-14.55z" fill="#EABBA4"/> <path d="m297.25 222.14s25.49 19.35-60.64 35.27c0 0-89.41-1.8-58.22-15.87 0 0-51.57-28.75-24.02-26.13 0 0-44.76-61.02-20.16-48.84-3.87-11.21-19.7-59.13-2.21-44.69 0 0-3.41-68.6 10.38-43.74 0 0 13.86-58.88 22.62-36.49 0 0 29.28-53.14 36.94-25.44 0 0 25.24-33.17 23.36-4.62 0 0 22.05-22.88 23.6 2.84 0 0 10.34-21.03 34.23 19 0 0 13.2-17.69 23.89 30.03 0 0 9.74-18.36 13.49 34.49 0 0 18.12-19.15 4.51 42.93 0 0 22.06-11.21-10.23 49.95-0.02 0 27.87-2.01-17.54 31.31z" fill="#A6BC72"/> <path d="m297.25 222.14s25.49 19.35-60.64 35.27c0 0-89.41-1.8-58.22-15.87 0 0-51.57-28.75-24.02-26.13 0 0-44.76-61.02-20.16-48.84-3.87-11.21-19.7-59.13-2.21-44.69 0 0 9.99 29 52.61 48.07 19.23 8.61 58.57 19.85 85.26-20.58-1.81 15.29 21.36 50.41 46.88 41.46 5.44 0.35 18.1 3.72-19.5 31.31z" fill="#6A912D" opacity=".4"/> <path d="m228.38 416.96h20.32c-3.49-34.85-4.95-69.96-5.92-104.96-0.92-33.21-1.51-66.51-0.44-99.72-0.41 0.44-0.91 0.81-1.52 1.08-0.42 0.56-0.97 1.03-1.65 1.37-0.48 1.91-1.86 3.45-4.27 3.78 0.86 31.9 0.28 63.88-0.67 95.75-1.03 34.25-2.47 68.59-5.85 102.7z" fill="#A38B55"/> <path d="m229.8 416.96h20.32c-3.49-34.85-4.95-69.96-5.92-104.96-0.96-34.84-1.59-69.77-0.29-104.61h-0.27c0.35 2.45-0.52 4.94-2.82 5.97-0.42 0.56-0.97 1.03-1.65 1.37-0.37 1.5-1.31 2.77-2.86 3.41 0.88 32.02 0.3 64.13-0.67 96.13-1.02 34.24-2.46 68.58-5.84 102.69z" fill="#684F37"/> <path d="m274.38 208.07c-0.53 10.65-3.28 21.86-8.55 31.18-5.68 10.05-13.97 16.65-25.18 19.37-0.47-2.93-0.93-5.85-1.4-8.78 10.3-1.56 17.8-7.9 22.96-16.75 3.16-5.41 5.38-11.36 6.95-17.41 0.66-2.55 1.22-5.14 1.6-7.75 0.07-0.37 3.1 0.1 3.62 0.14z" fill="#684F37"/> <path d="m196.89 222.7c0.46 21.1 4.24 44.26 14.65 62.84 5.19 9.27 12.83 17.75 23.37 20.74 0.8 0.23 5.28 0.55 5.67 1.11 0.22 0.32-0.27 2.03-0.32 2.4-0.31 2.29-0.61 4.58-0.92 6.87-21.99-4.03-34.15-22.71-40.19-42.89-3.21-10.72-4.96-21.89-5.84-33.04-0.4-5.1-0.63-10.22-0.6-15.34 0-1.19-0.58-2.75 0.8-2.74 1.12 0.02 2.25 0.03 3.38 0.05z" fill="#684F37"/> <path d="m247.29 416.96h2.82c-3.49-34.85-4.95-69.96-5.92-104.96-0.96-34.84-1.59-69.77-0.29-104.61h-0.27c0.35 2.43-0.5 4.88-2.73 5.94-1.03 32.87-0.44 65.81 0.47 98.67 0.98 34.99 2.44 70.11 5.92 104.96z" fill="#543C29"/> <path d="m200.84 273.37c-3.21-10.73-4.96-21.89-5.84-33.04-0.4-5.1-0.63-10.22-0.61-15.34 0-0.81-0.26-1.78-0.01-2.32-0.29 0-0.59-0.01-0.88-0.01-1.38-0.01-0.79 1.55-0.8 2.74-0.02 5.12 0.21 10.24 0.6 15.34 0.88 11.15 2.63 22.31 5.84 33.04 6.05 20.18 18.2 38.86 40.19 42.89 0.03-0.24 0.07-0.49 0.1-0.73-20.98-4.63-32.69-22.89-38.59-42.57z" fill="#543C29"/> <path d="m234.36 306.11c-10.25-3.13-17.72-11.45-22.83-20.57-10.41-18.59-14.19-41.75-14.65-62.84-1.13-0.02-2.26-0.02-3.39-0.04-0.06 0-0.11 0-0.16 0.02 0.73 0.01 1.45 0.01 2.18 0.02 0.46 21.1 4.24 44.26 14.65 62.84 5.19 9.28 12.84 17.75 23.37 20.74 0.16 0.04 0.45 0.09 0.83 0.15v-0.32z" fill="#A38B55"/> <path d="m274.38 208.07c-0.53 10.65-3.28 21.86-8.54 31.18-5.68 10.05-13.98 16.64-25.18 19.37-0.11-0.65-0.21-1.31-0.31-1.96 11-2.79 19.16-9.34 24.77-19.27 4.98-8.81 7.71-19.31 8.44-29.42 0.38 0.05 0.68 0.09 0.82 0.1z" fill="#543C29"/> <path d="m270.78 207.93c-0.38 2.61-0.94 5.2-1.6 7.75-1.58 6.05-3.79 12-6.95 17.41-4.49 7.69-10.75 13.48-19.06 15.89v0.63c9.43-1.97 16.38-8.08 21.26-16.44 3.16-5.41 5.38-11.35 6.96-17.41 0.66-2.55 1.22-5.13 1.6-7.75 0.01-0.05 0.06-0.08 0.17-0.1-1.06-0.11-2.35-0.22-2.38 0.02z" fill="#A38B55"/> <path d="m214.35 231.16s29.83-6.96 35.34-23.7c0 0 20.11 7.08 33.79 1.51 0 0-29.28-3.63-37.75-13.22 0 0-6.96 25.85-31.38 35.41z" fill="#A6BC72"/> <path d="m165.5 213.74s16.19 14.32 28.08 10.65c0 0 4.14 14.46 12.94 20.06 0 0-9.88-18.33-7.82-27.12 0 0-17.71 6.56-33.2-3.59z" fill="#A6BC72"/> <path d="m154.43 178.91c2.98 0.97 6.17 1.2 9.11 2.22 3.11 1.08 7.97 5.45 4.38 8.8-6.49 6.05-17.17-8.78-13.49-11.02z" fill="#B0CC7E"/> <path d="m154.41 178.93c4.55 1.35 13.97 1.56 14.67 7.84 0.51 4.65-4.83 1.31-6.97 0.24-3.53-1.76-6.39-4.28-7.7-8.08z" fill="none"/> <path d="m154.41 178.93c4.55 1.35 13.97 1.56 14.67 7.84 0.51 4.65-4.83 1.31-6.97 0.24-3.53-1.76-6.39-4.28-7.7-8.08z" fill="#A6BC72"/> <path d="m170.4 172.74c4.39 2.51 8.9 10.75 3.19 14.52-3.32 2.2-5.73-1.78-5.77-4.68-0.02-1.57 1-9.18 2.58-9.84z" fill="#B0CC7E"/> <path d="m170.38 172.75c4.53 2.47 7.8 8.78 4.3 13.46-0.76 1.02-1.98 1.8-3.31 1.65-1.96-0.22-1.02-1.48-0.8-2.94 0.64-4.14 0.25-8.06-0.19-12.17z" fill="none"/> <path d="m170.38 172.75c4.53 2.47 7.8 8.78 4.3 13.46-0.76 1.02-1.98 1.8-3.31 1.65-1.96-0.22-1.02-1.48-0.8-2.94 0.64-4.14 0.25-8.06-0.19-12.17z" fill="#A6BC72"/> <path d="m228.49 204.96c-3.64 2.85-15.3 9.06-17.43 1.09-1.13-4.24 4.83-5.86 7.81-5.65 1.76 0.13 9.56 2.04 9.62 4.56z" fill="#B0CC7E"/> <path d="m228.49 204.94c-3.76 3.08-10.37 6.8-15.21 3.94-1.1-0.65-2.13-1.85-2.29-3.16 1.71-0.89 3.61-1.4 5.5-1.68 3.98-0.59 8.15-0.21 12 0.9z" fill="none"/> <path d="m228.49 204.94c-3.76 3.08-10.37 6.8-15.21 3.94-1.1-0.65-2.13-1.85-2.29-3.16 1.71-0.89 3.61-1.4 5.5-1.68 3.98-0.59 8.15-0.21 12 0.9z" fill="#A6BC72"/> <path d="m217.21 191.91c-0.82 2.9-2.21 19-8.83 13.38-6.75-5.72 6.44-16.94 8.83-13.38z" fill="#B0CC7E"/> <path d="m217.2 191.89c-1.03 4.05-0.55 12.93-5.81 14.11-3.14 0.71-1.34-6.18-0.72-7.8 0.89-3.03 3.71-5.22 6.53-6.31z" fill="none"/> <path d="m217.2 191.89c-1.03 4.05-0.55 12.93-5.81 14.11-3.14 0.71-1.34-6.18-0.72-7.8 0.89-3.03 3.71-5.22 6.53-6.31z" fill="#A6BC72"/> <path d="m249.06 180.2c3.07-0.58 6.31-1.25 9.36-0.21 2.95 1.01 7.06 5.1 5.08 8.57-1.5 2.61-6.24 1.18-8.14-0.29-1.09-0.85-7.4-6.42-6.3-8.07z" fill="#B0CC7E"/> <path d="m249.05 180.22c5.4-1.15 13.57-1.33 14.81 5.79 0.3 1.44-0.27 3.17-1.7 3.76-1.67 0.68-1.84-1.44-2.86-2.5-2.91-3.04-7.28-4.11-10.25-7.05z" fill="none"/> <path d="m249.05 180.22c5.4-1.15 13.57-1.33 14.81 5.79 0.3 1.44-0.27 3.17-1.7 3.76-1.67 0.68-1.84-1.44-2.86-2.5-2.91-3.04-7.28-4.11-10.25-7.05z" fill="#A6BC72"/> <path d="m270.44 170.4c10.3 2.34 7.08 19.72-2.56 20.65-6.04 0.53-5.99-6.73-3.8-10.44 1.14-1.93 2.79-3.24 4.27-4.88 1.13-1.27 1.07-4.5 2.09-5.33z" fill="#B0CC7E"/> <path d="m270.42 170.42c10.03 1.91 7.09 17.58-0.96 20.29-1.8 0.61-3.86 0.48-5.31-0.87-1.64-1.54 1.1-3.34 2.18-4.74 3.3-4.29 6.38-9.19 4.09-14.68z" fill="none"/> <path d="m270.42 170.42c10.03 1.91 7.09 17.58-0.96 20.29-1.8 0.61-3.86 0.48-5.31-0.87-1.64-1.54 1.1-3.34 2.18-4.74 3.3-4.29 6.38-9.19 4.09-14.68z" fill="#A6BC72"/> <path d="m183.47 61.66c-0.65 2.32-3.46 19.2-9.33 13.96-7.76-6.1 6.77-17.59 9.33-13.96z" fill="#B0CC7E"/> <path d="m183.46 61.64c-1.2 4.77-1.34 11.09-5.8 14.23-1.86 1.32-1.99-6.02-1.67-6.91 1.17-3.32 4.17-6.12 7.47-7.32z" fill="none"/> <path d="m183.46 61.64c-1.2 4.77-1.34 11.09-5.8 14.23-1.86 1.32-1.99-6.02-1.67-6.91 1.17-3.32 4.17-6.12 7.47-7.32z" fill="#6A912D" opacity=".4"/> <path d="m196.17 75.8c-2.74 5.69-12.28 11.41-17.56 5.31-3.33-3.86 1.54-7.52 5.25-7.81 2.22-0.17 4.44 0.36 6.58 0.87 1.09 0.27 5.21 0.64 5.73 1.63z" fill="#B0CC7E"/> <path d="m196.16 75.78c-2.54 5.81-10.46 10.14-16.36 6.36-1.34-0.86-2.38-2.31-2.27-3.96 0.15-2.19 2.68-1.13 4.34-1.1 4.81 0.09 9.57-0.33 14.29-1.3z" fill="none"/> <path d="m196.16 75.78c-2.54 5.81-10.46 10.14-16.36 6.36-1.34-0.86-2.38-2.31-2.27-3.96 0.15-2.19 2.68-1.13 4.34-1.1 4.81 0.09 9.57-0.33 14.29-1.3z" fill="#6A912D" opacity=".4"/> <path d="m200.77 132.77c4.31 1.33 9.47 2.59 12.84 5.78 2.2 2.09 5.01 8.37 2.1 10.98-3.6 3.23-9.85-1.44-11.9-4.35-1.11-1.59-5.64-10.8-3.04-12.41z" fill="#B0CC7E"/> <path d="m200.76 132.79c3.33 0.92 6.76 2.04 9.83 3.68 1.88 1 3.59 2.33 4.82 4.09 1.03 1.47 0.67 2.75 1.07 4.37 1.41 5.87-6.22 0.61-8.12-1.13-3.27-2.97-6.17-6.8-7.6-11.01z" fill="none"/> <path d="m200.76 132.79c3.33 0.92 6.76 2.04 9.83 3.68 1.88 1 3.59 2.33 4.82 4.09 1.03 1.47 0.67 2.75 1.07 4.37 1.41 5.87-6.22 0.61-8.12-1.13-3.27-2.97-6.17-6.8-7.6-11.01z" fill="#6A912D" opacity=".4"/> <path d="m223.64 132.72c1.34 3.65 2.28 15.28-4.86 14.09-3.75-0.63-3.09-5.52-1.73-7.9 0.82-1.41 4.75-6.75 6.59-6.19z" fill="#B0CC7E"/> <path d="m223.63 132.72c1.63 4.09 2.15 10.5-2.02 13.38-1.1 0.76-2.53 1.03-3.77 0.41-0.61-0.31 0.48-2.72 0.68-3.27 1.29-3.63 2.89-7.37 5.11-10.52z" fill="none"/> <path d="m223.63 132.72c1.63 4.09 2.15 10.5-2.02 13.38-1.1 0.76-2.53 1.03-3.77 0.41-0.61-0.31 0.48-2.72 0.68-3.27 1.29-3.63 2.89-7.37 5.11-10.52z" fill="#6A912D" opacity=".4"/> <path d="m234.92 147.2c-2.07 2.68-4.77 5.18-7.99 6.37-2.97 0.97-8.4 0.95-9.31-2.96-0.92-3.96 3.92-6.01 7.05-6.08 1.84-0.04 9.66 0.48 10.25 2.67z" fill="#B0CC7E"/> <path d="m234.91 147.18c-3.15 4.29-9.44 9.03-15.01 6.16-1.1-0.57-2-1.5-2.29-2.73-0.47-2.02 2.15-1.77 3.65-2 4.49-0.74 9.1-1.64 13.65-1.43z" fill="none"/> <path d="m234.91 147.18c-3.15 4.29-9.44 9.03-15.01 6.16-1.1-0.57-2-1.5-2.29-2.73-0.47-2.02 2.15-1.77 3.65-2 4.49-0.74 9.1-1.64 13.65-1.43z" fill="#6A912D" opacity=".4"/> <path d="m248.38 81.31c3 2.08 6.42 4.21 8.55 7.25 2.03 2.89 3.69 9.98-1.04 11.43-4.01 1.23-7.23-3.13-8.21-6.4-0.51-1.69-2.19-11.47 0.7-12.28z" fill="#B0CC7E"/> <path d="m248.36 81.31c4.94 3.21 13.45 9.34 9.98 16.43-0.71 1.47-2.14 2.55-3.83 2.42-0.6-1.98-1.4-3.89-2.22-5.78-1.81-4.21-3.79-8.4-3.93-13.07z" fill="none"/> <path d="m248.36 81.31c4.94 3.21 13.45 9.34 9.98 16.43-0.71 1.47-2.14 2.55-3.83 2.42-0.6-1.98-1.4-3.89-2.22-5.78-1.81-4.21-3.79-8.4-3.93-13.07z" fill="#6A912D" opacity=".4"/> <path d="m268.73 89.95c-1.09 3.3-2 7.13-4.41 9.75-1.9 2.09-6.09 4.42-8.74 2.21-3.35-2.77 0.14-7.69 2.72-9.41 1.2-0.79 9.04-4.79 10.43-2.55z" fill="#B0CC7E"/> <path d="m268.72 89.94c-1.56 5.21-3.89 12.6-10.5 12.83-1.58-0.01-3.08-0.75-3.63-2.3-0.22-0.61 3.24-2.95 3.85-3.5 3.14-2.75 6.24-5.7 10.28-7.03z" fill="none"/> <path d="m268.72 89.94c-1.56 5.21-3.89 12.6-10.5 12.83-1.58-0.01-3.08-0.75-3.63-2.3-0.22-0.61 3.24-2.95 3.85-3.5 3.14-2.75 6.24-5.7 10.28-7.03z" fill="#6A912D" opacity=".4"/> <path d="m283.95 118.34c5.13 1.04 18.83 7.18 13.07 14.52-2.92 3.73-8.27-0.15-10.18-2.87-1.17-1.69-4.94-9.81-2.89-11.65z" fill="#B0CC7E"/> <path d="m283.94 118.35c5.46 0.93 14.61 4.86 14.13 11.7-0.37 5.31-4.33 1.44-6.51-0.65-3.23-3.1-5.76-6.99-7.62-11.05z" fill="none"/> <path d="m283.94 118.35c5.46 0.93 14.61 4.86 14.13 11.7-0.37 5.31-4.33 1.44-6.51-0.65-3.23-3.1-5.76-6.99-7.62-11.05z" fill="#6A912D" opacity=".4"/> <path d="m143.91 140.56c5.13 1.04 18.83 7.18 13.07 14.52-2.92 3.73-8.27-0.15-10.18-2.87-1.18-1.69-4.95-9.8-2.89-11.65z" fill="#B0CC7E"/> <path d="m143.89 140.58c5.46 0.93 14.61 4.86 14.13 11.7-0.37 5.31-4.34 1.44-6.51-0.65-3.23-3.1-5.76-7-7.62-11.05z" fill="none"/> <path d="m143.89 140.58c5.46 0.93 14.61 4.86 14.13 11.7-0.37 5.31-4.34 1.44-6.51-0.65-3.23-3.1-5.76-7-7.62-11.05z" fill="#6A912D" opacity=".4"/> <path d="m304.27 117.58c3.29 3.65 2.64 13.43-3.5 13.82-4.24 0.27-3.9-4.75-2.47-7.29 0.75-1.33 4.45-6.34 5.97-6.53z" fill="#B0CC7E"/> <path d="m304.26 117.58c3.31 3.48 2.61 10.89-1.73 13.29-1.14 0.63-2.53 0.74-3.69 0.11-0.65-0.36 0.95-3.25 1.21-3.8 1.51-3.13 3.52-6.15 4.21-9.6z" fill="none"/> <path d="m304.26 117.58c3.31 3.48 2.61 10.89-1.73 13.29-1.14 0.63-2.53 0.74-3.69 0.11-0.65-0.36 0.95-3.25 1.21-3.8 1.51-3.13 3.52-6.15 4.21-9.6z" fill="#6A912D" opacity=".4"/> <path d="m163.99 142.47c3.29 3.65 2.64 13.43-3.5 13.82-4.24 0.27-3.9-4.75-2.47-7.29 0.74-1.32 4.44-6.33 5.97-6.53z" fill="#B0CC7E"/> <path d="m163.97 142.48c3.31 3.48 2.61 10.89-1.73 13.29-1.13 0.63-2.53 0.74-3.7 0.11-0.65-0.36 0.95-3.25 1.21-3.8 1.52-3.13 3.53-6.16 4.22-9.6z" fill="none"/> <path d="m163.97 142.48c3.31 3.48 2.61 10.89-1.73 13.29-1.13 0.63-2.53 0.74-3.7 0.11-0.65-0.36 0.95-3.25 1.21-3.8 1.52-3.13 3.53-6.16 4.22-9.6z" fill="#6A912D" opacity=".4"/> <path d="m236.43 32.67c1.8 2.22 4.35 4.14 5.59 6.76 0.9 1.96 1.22 6.84-1.93 7.08-6.94 0.42-6.79-14.08-3.66-13.84z" fill="#B0CC7E"/> <path d="m236.41 32.68c2.87 3.35 7.19 6.47 5.98 11.39-0.94 3.54-3.83-0.81-4.67-2.45-1.35-2.64-2.11-6.03-1.31-8.94z" fill="none"/> <path d="m236.41 32.68c2.87 3.35 7.19 6.47 5.98 11.39-0.94 3.54-3.83-0.81-4.67-2.45-1.35-2.64-2.11-6.03-1.31-8.94z" fill="#6A912D" opacity=".4"/> <path d="m256.75 32.99c-0.86 3.93-2.15 8.37-4.85 11.46-2.35 2.68-7.45 5.44-10.39 1.97-2.79-3.3 0.36-7.9 3.1-9.96 1.63-1.24 10.3-5.82 12.14-3.47z" fill="#B0CC7E"/> <path d="m256.73 32.97c-1.03 5.73-4.29 14.72-11.36 15.05-1.56 0.07-3.24-0.57-4.11-1.93 1.33-1.86 2.88-3.58 4.49-5.2 3.18-3.21 6.81-6.11 10.98-7.92z" fill="none"/> <path d="m256.73 32.97c-1.03 5.73-4.29 14.72-11.36 15.05-1.56 0.07-3.24-0.57-4.11-1.93 1.33-1.86 2.88-3.58 4.49-5.2 3.18-3.21 6.81-6.11 10.98-7.92z" fill="#6A912D" opacity=".4"/> <path d="m400.21 325.22c-2.49-4.15-1.7-39.89-1.75-43.13-6.81 1.41-13.02 4.18-20.03 4.87-5.65 0.56-11.4 0.76-17.04 1.51 3 19.22 6.42 38.2 7.39 40.92 1.93 5.47 18.51 72.55 18.51 72.55l20.94 0.29c3.29-16.31-2.78-68.27-8.02-77.01z" fill="#89713B"/> <path d="m410.7 355.37s-0.02 1.48-0.08 3.84c0 0.37-0.02 0.75-0.03 1.16 0.01 0.12 0 0.24-0.01 0.37v0.05c-0.01 0.61-0.04 1.28-0.05 1.96v0.05 0.35c0 0.13-0.01 0.27-0.01 0.4-0.01 0.24-0.02 0.49-0.03 0.73v0.05c-0.28 9.94-0.87 24.95-1.86 27.82 0.4 0.03 2.38 5.58 0.52 10.9-0.14 0.45-0.32 0.89-0.54 1.34-1.57 3.24-35.89 3.58-40.3 3.13-0.92-0.08-1.84-0.78-2.46-1.76-0.76-1.2-1.13-2.8-0.61-4.26 0.11-0.35 0.29-0.68 0.51-0.99v-0.01c0.21-0.31 0.47-0.6 0.79-0.86 0.31-0.26 0.69-0.5 1.11-0.71 0.46-0.24 1-0.43 1.61-0.59 0.88-0.22 1.91-0.36 3.11-0.38 2.81-0.05 6.56-1.69 9.82-3.78 0.5-0.33 1-0.66 1.47-1 0.01 0 0.03-0.01 0.04-0.04 0.34-0.22 0.65-0.47 0.96-0.71h0.01c0.09-0.08 0.19-0.15 0.28-0.23 0.47-0.37 0.91-0.73 1.32-1.12h0.01c1.69-1.52 2.89-3.03 3.17-4.17-0.2-4.3-0.76-8.97-1.42-13.33-0.11-0.66-0.21-1.3-0.31-1.93-0.02-0.08-0.02-0.15-0.03-0.23-0.09-0.56-0.18-1.1-0.28-1.63-0.26-1.5-0.52-2.94-0.77-4.27-0.04-0.27-0.1-0.53-0.15-0.77-0.02-0.13-0.04-0.25-0.07-0.38s-0.06-0.25-0.07-0.36c-0.14-0.75-0.29-1.44-0.43-2.1-0.11-0.54-0.21-1.05-0.31-1.52-0.5-2.33-0.85-3.75-0.85-3.75l25.94-1.27z" fill="#938A7C"/> <path d="m408.94 403.02s-12.38 0.74-12.59 0.7c-7.49-1.24-22.16 3.13-29.65 1.89-0.88-0.14-1.56 0.55-1.51 1.67 0.06 1.12 0.82 2.23 1.71 2.37 7.49 1.22 22.16-3.18 29.65-1.96 0.11 0.02 0.21 0.02 0.31 0.02 0.19 0.65 0.48 1.07 0.78 1.06l11.55-0.57c0.49-0.03 0.84-1.2 0.76-2.64-0.06-1.43-0.51-2.57-1.01-2.54z" fill="#54351C"/> <g fill="#fff" opacity=".4"> <path d="m410.62 359.21c-0.01 0.48-0.02 0.99-0.04 1.53-3.5 0.83-7.27 1.25-10.88 1.42-5.55 0.28-10.69-0.02-13.79-0.28-0.11-0.54-0.22-1.05-0.32-1.52 4.91 0.43 16.12 1.04 25.03-1.15z"/> <path d="m410.53 362.76c-0.01 0.5-0.03 1-0.04 1.53-3.49 0.82-7.27 1.24-10.86 1.42-5.1 0.25-9.85 0.03-12.99-0.22-0.1-0.52-0.2-1.03-0.29-1.51 5.24 0.41 15.74 0.85 24.18-1.22z"/> </g> <path d="m397.55 378.82c3.55 3.37-1.52 4.88-0.38 0.11-1.14 4.76-4.99 1.12-0.29-0.27-4.7 1.39-3.46-3.76 0.09-0.39-3.55-3.37 1.52-4.88 0.38-0.11 1.14-4.76 4.98-1.12 0.29 0.27 4.7-1.39 3.46 3.76-0.09 0.39z" fill="#fff" opacity=".4"/> <path d="m403.4 388.95c3.55 3.37-1.52 4.88-0.38 0.11-1.14 4.76-4.99 1.12-0.29-0.28-4.7 1.39-3.46-3.76 0.09-0.38-3.55-3.37 1.52-4.88 0.38-0.12 1.14-4.76 4.99-1.12 0.29 0.28 4.7-1.39 3.46 3.76-0.09 0.39z" fill="#fff" opacity=".4"/> <path d="m397.05 398.78c3.55 3.37-1.52 4.88-0.38 0.11-1.14 4.76-4.99 1.12-0.29-0.27-4.7 1.39-3.46-3.76 0.09-0.39-3.55-3.37 1.52-4.88 0.38-0.11 1.14-4.76 4.99-1.12 0.29 0.28 4.7-1.4 3.46 3.75-0.09 0.38z" fill="#fff" opacity=".4"/> <path d="m405.88 369.96c3.55 3.37-1.52 4.88-0.38 0.11-1.14 4.76-4.99 1.12-0.29-0.28-4.7 1.39-3.46-3.76 0.09-0.39-3.55-3.37 1.52-4.88 0.38-0.11 1.14-4.76 4.98-1.12 0.29 0.27 4.69-1.38 3.46 3.77-0.09 0.4z" fill="#fff" opacity=".4"/> <path d="m374.96 174.13s-22.65 35.12-23.95 37.76 4.07 14.16 6.36 15.94c2.3 1.78 3.44 24.31 1.43 29.29s44.62 7.38 44.62 7.38-8.58-34.35-6.54-40.62c7.06-21.71 6.49-48.95-1.85-52.55-8.35-3.6-20.07 2.8-20.07 2.8z" fill="#F39200"/> <path d="m398.33 281.96s-5.96 37.74-4.44 42.52c2.01 6.33 0.75 57.18-3.4 73.29l-10.1 1.95s-13.08-67.85-14.72-73.42-9.79-76.98-7.88-83.93c1.83-6.61-4.06-18-6.5-22.28-0.13-0.22-0.24-0.43-0.35-0.61-0.17-0.29-0.35-0.63-0.52-1-1.94-4.12-3.86-12.61-2.9-15.69 0.03-0.14 0.08-0.26 0.13-0.37 0.23-0.5 0.58-1.25 1.01-2.16 2.12-4.47 6.27-12.77 8.57-13.73l7.57 3.41 2.77 1.25s11.56 38.49 29.06 37.53l0.01 0.03 3.11 9.74s5.74 9.4 5.84 22.83c0.1 13.16-3.38 15.96-7.26 20.64z" fill="#968045"/> <path d="m396.58 360.76s-0.13 1.47-0.34 3.83c-0.03 0.37-0.07 0.74-0.11 1.16 0 0.12-0.02 0.24-0.04 0.37v0.05c-0.06 0.61-0.12 1.28-0.19 1.96v0.06c0 0.11-0.02 0.23-0.03 0.34-0.01 0.13-0.03 0.27-0.04 0.4-0.03 0.24-0.05 0.49-0.08 0.72v0.05c-0.96 9.89-2.58 24.83-3.77 27.63 0.4 0.06 1.99 5.73-0.23 10.91-0.17 0.44-0.38 0.87-0.63 1.29-1.79 3.13-36.06 1.1-40.42 0.36-0.92-0.15-1.78-0.9-2.33-1.93-0.68-1.25-0.93-2.88-0.32-4.29 0.14-0.34 0.34-0.65 0.58-0.95v-0.01c0.23-0.3 0.51-0.56 0.85-0.8 0.33-0.24 0.72-0.45 1.16-0.63 0.48-0.21 1.02-0.36 1.64-0.48 0.89-0.16 1.93-0.22 3.13-0.17 2.81 0.14 6.66-1.23 10.06-3.09 0.53-0.29 1.04-0.59 1.53-0.9 0.01 0 0.03-0.01 0.04-0.03 0.35-0.2 0.68-0.42 1.01-0.64h0.01l0.3-0.21c0.49-0.34 0.95-0.66 1.39-1.02h0.01c1.79-1.4 3.09-2.82 3.45-3.94 0.09-4.3-0.14-9.01-0.5-13.39-0.06-0.66-0.12-1.31-0.18-1.95-0.01-0.08-0.01-0.15-0.02-0.23-0.05-0.56-0.11-1.11-0.16-1.65-0.15-1.52-0.32-2.97-0.48-4.32-0.03-0.27-0.07-0.53-0.09-0.78-0.01-0.13-0.03-0.25-0.05-0.38s-0.04-0.25-0.05-0.37c-0.09-0.76-0.19-1.45-0.28-2.13-0.08-0.54-0.14-1.06-0.21-1.54-0.34-2.36-0.59-3.8-0.59-3.8l25.98 0.5z" fill="#9B9180"/> <path d="m391.55 408.17s-12.4-0.11-12.61-0.16c-7.39-1.75-22.33 1.6-29.71-0.15-0.87-0.21-1.59 0.44-1.62 1.56-0.02 1.12 0.67 2.28 1.54 2.48 7.39 1.73 22.33-1.65 29.71 0.08 0.11 0.02 0.21 0.04 0.31 0.04 0.15 0.67 0.41 1.1 0.71 1.11l11.56 0.22c0.49 0.01 0.92-1.14 0.95-2.58 0.03-1.42-0.35-2.59-0.84-2.6z" fill="#54351C"/> <g fill="#fff" opacity=".4"> <path d="m396.23 364.59c-0.04 0.47-0.09 0.98-0.14 1.52-3.55 0.59-7.34 0.74-10.95 0.67-5.55-0.11-10.66-0.75-13.74-1.23-0.08-0.55-0.15-1.06-0.21-1.54 4.86 0.77 16 2.15 25.04 0.58z"/> <path d="m395.9 368.12c-0.05 0.49-0.1 1-0.15 1.52-3.54 0.58-7.33 0.74-10.93 0.67-5.1-0.1-9.83-0.65-12.95-1.11-0.06-0.53-0.13-1.04-0.19-1.53 5.21 0.78 15.65 1.94 24.22 0.45z"/> </g> <path d="m374.33 375.29c3.32 3.6-1.86 4.76-0.39 0.09-0.35 1.09-0.79 1.71-1.23 2.02-0.06-0.66-0.12-1.31-0.18-1.95 0.3-0.13 0.69-0.27 1.14-0.37-0.45 0.1-0.84 0.15-1.16 0.14-0.05-0.56-0.11-1.11-0.16-1.65 0.42 0.19 0.91 0.55 1.44 1.13-3.32-3.61 1.85-4.76 0.39-0.09 1.46-4.67 5.05-0.77 0.26 0.3 4.79-1.06 3.21 3.98-0.11 0.38z" fill="#fff" opacity=".4"/> <path d="m381.85 383.26c3.31 3.61-1.86 4.76-0.39 0.09-1.47 4.67-5.05 0.77-0.27-0.29-4.78 1.07-3.2-3.99 0.12-0.38-3.32-3.61 1.85-4.76 0.39-0.09 1.46-4.67 5.05-0.77 0.27 0.29 4.77-1.07 3.19 3.98-0.12 0.38z" fill="#fff" opacity=".4"/> <path d="m386.98 393.76c3.31 3.6-1.85 4.76-0.39 0.09-1.46 4.67-5.05 0.77-0.27-0.29-4.78 1.07-3.2-3.98 0.12-0.38-3.31-3.61 1.85-4.76 0.39-0.09 1.46-4.67 5.05-0.77 0.27 0.29 4.78-1.07 3.2 3.98-0.12 0.38z" fill="#fff" opacity=".4"/> <path d="m379.98 403.13c3.31 3.61-1.86 4.76-0.39 0.09-1.46 4.67-5.05 0.77-0.27-0.29-4.78 1.07-3.2-3.99 0.12-0.38-3.31-3.61 1.85-4.76 0.39-0.09 1.47-4.67 5.05-0.77 0.27 0.29 4.77-1.06 3.19 3.99-0.12 0.38z" fill="#fff" opacity=".4"/> <path d="m369.75 394.73h0.01c1.03 0.03 1.37 1.86-1.67 2.54 4.78-1.08 3.19 3.98-0.12 0.38 3.31 3.6-1.86 4.76-0.39 0.09-1.46 4.67-5.05 0.77-0.28-0.3-0.77 0.17-1.38 0.19-1.84 0.1 0.53-0.29 1.04-0.59 1.53-0.9 0.14 0.12 0.29 0.26 0.44 0.43-0.15-0.15-0.28-0.32-0.39-0.46 0.35-0.2 0.68-0.42 1.01-0.64-0.03 0.3-0.11 0.64-0.22 1.01 0.16-0.5 0.34-0.9 0.53-1.22l1.39-1.03z" fill="#fff" opacity=".4"/> <path d="m352.28 403.81c3.32 3.6-1.86 4.76-0.39 0.08-1.46 4.68-5.05 0.78-0.27-0.29-2.1 0.47-2.97-0.24-3-0.88v-0.01c0.23-0.3 0.51-0.56 0.85-0.8 0.55-0.02 1.35 0.31 2.27 1.31-0.71-0.77-1.03-1.43-1.11-1.94 0.48-0.21 1.02-0.36 1.64-0.48 0.19 0.5 0.19 1.26-0.14 2.33 1.46-4.68 5.05-0.78 0.27 0.29 4.78-1.06 3.2 3.99-0.12 0.39z" fill="#fff" opacity=".4"/> <path d="m390.76 374.99c3.31 3.6-1.86 4.76-0.39 0.09-1.47 4.67-5.05 0.77-0.27-0.29-4.78 1.07-3.2-3.99 0.12-0.38-3.31-3.61 1.86-4.76 0.39-0.09 1.47-4.67 5.05-0.77 0.27 0.29 4.78-1.07 3.2 3.98-0.12 0.38z" fill="#fff" opacity=".4"/> <path d="m401.91 186.53s-2.72 24.32-5.04 37.36c-2.31 13.03 0 9.5 0 9.5" fill="none" stroke="#968045" stroke-miterlimit="10" stroke-width="3"/> <path d="m388.11 235.85s-20 1.08-26.93-3.93-0.49 3.6-0.49 3.6 20.04 3.78 27.42 0.33z" fill="#1D1D1B" opacity=".2"/> <path d="m365.27 240.14s6.53 11.73 8.88 13.31 11.76 0 11.76 0-8.49-2.12-10.32-3.41-6.85-10.76-6.85-10.76l-3.47 0.86z" fill="#1D1D1B" opacity=".2"/> <circle cx="366.37" cy="250.35" r="2.25" fill="#1D1D1B" opacity=".2"/> <circle cx="377.02" cy="243.91" r="1.86" fill="#1D1D1B" opacity=".2"/> <path d="m360.87 200.26v2.53h-13.35c0.03-0.14 0.08-0.26 0.13-0.37 0.23-0.5 0.58-1.25 1.01-2.16h12.21z" fill="#1D1D1B" opacity=".2"/> <path d="m362.68 219.71c-0.58 0.21-4.94 0.35-9.88 0.37-0.5 0.01-1 0.01-1.51 0.01-0.13-0.22-0.24-0.43-0.35-0.61-0.17-0.29-0.35-0.63-0.52-1 0.58-0.01 1.16-0.01 1.73-0.02 4.46-0.06 8.35-0.21 8.72-0.4 0.9-0.48 0-14.35 0-14.35s3.17 15.5 1.81 16z" fill="#1D1D1B" opacity=".2"/> <path d="m299.84 156.23s7.8 7.63 7.63 11.79c0 0 1.65 1.51-2.47 2.41-5.17 1.13-9.58-7.17-9.07-8.34 0.51-1.18-3.39-10.04-0.81-10.83 5.12-1.58 2.78 2.97 4.72 4.97z" fill="#EABBA4"/> <path d="m303.23 130.1s-4.09 7.78-4.31 9.5c-0.13 1.02-0.67 3.1-1.22 4.71-0.03-0.22-0.08-0.44-0.13-0.66-0.34-1.31-1.53-3.1-2.55-3.75-0.58-0.37-1.26-1.09-1.7-1.99 1.35-1.75 7.68-8.45 9.91-7.81z" fill="#DADADA"/> <path d="m290.41 142.49c-0.54 0.18-0.55 2-1.09 2.4-0.07 0.05-0.15 0.1-0.25 0.15 0.6 1.44 1.1 2.92 1.44 4.45 0.8-0.97 1.76-1.81 1.98-1.89 0.39-0.14 1.21-2.74 1.09-3.88-0.11-1.14-2.63-1.41-3.17-1.23z" fill="#878787"/> <path d="m291.98 133.48c-0.99 3.25-0.64 6.58-0.64 7.34 0.01 0.76 0.58 4.39 0.92 4.86 0.33 0.47 1.73-0.56 1.54 0.51-0.2 1.06-0.48 1.65-0.26 2.49s2.09 0.69 2.17 1.59c0.03 0.34 0.02 0.58-0.04 0.84 1.06 0.02 2.14-0.18 3.15-0.61-0.51-1.5-1.04-3-1.07-3.71-0.06-1.14 0.17-2.07 0.16-3.12 0-0.22-0.01-0.44-0.04-0.67-0.15-1.34-1.07-3.28-1.99-4.07-0.53-0.45-1.1-1.26-1.4-2.21-0.23-0.73-0.31-1.54-0.1-2.35 0.5-1.86 5.93-7.56 5.93-7.56l-0.38-1.29s-6.96 4.71-7.95 7.96z" fill="#EDEDED"/> <path d="m295.08 153.26c-0.46 1.88-0.95 5.77-0.99 7.3s0.84 8.97 0.49 11.08-1.57 5.86-1.51 6.99c0.05 1.13 2 2.35 2.85-1.52 0.86-3.87 1.26-9.92 1.19-12.36-0.08-2.44-0.47-6.25 0.4-7.69 0.88-1.45 2.36-1.44 2.27-3.02-0.05-0.76-0.5-2.14-0.97-3.53-1.01 0.43-2.09 0.62-3.15 0.61-0.09 0.44-0.29 0.96-0.58 2.14z" fill="#E28C1A"/> <path d="m286.86 146.4c-0.56 0.81-0.04 1.7-0.09 2.81-0.04 1.11-0.58 2.32-1.13 3.13s-0.99 2.45-0.99 2.45-2.41 4.13-3.78 5.94-3.83 8.35-4.09 10.27c-0.26 1.91 2.71 3.38 2.98 0.07s4.95-11.88 5.95-12.63c1-0.76 3.48-5.46 3.67-6.89 0.08-0.6 0.57-1.36 1.14-2.05-0.34-1.53-0.84-3.01-1.44-4.45-0.64 0.32-1.73 0.65-2.22 1.35z" fill="#E28C1A"/> <circle cx="294.69" cy="143.06" r="1.59" fill="#C2CA9A"/> <path d="m287.99 172.35c-1.82-0.95-7.35-3.79-9.3-4.37-3.17-0.94-1.17-5.29 1.87-3.89 0.02-0.23-2.04-0.96-2.3-1.32-1.14-1.59 0.53-4.28 2.45-3.34-1.56-1.15-0.22-4.24 1.7-3.85-1.76-2.35 1.29-3.18 2.67-3.48 1.7-0.36 3.29 0.52 4.8 1.16 2.49 1.09 7.14 3 8.63 5.34 1.34 0.41 2.56 1.77 3.27 2.91 1.37 1.18 3.02 1.9 4.63 2.69 5.91 2.9 12.04 5.43 18.26 7.59 14.54 5.05 30.4 6.83 45.46 9.78-1.08 5.63-2.5 11.19-4.17 16.68 0.1 1.44-0.36 1.85-1.39 1.24-1.18-0.33-2.35-0.69-3.52-1.06-1.89-0.6-3.77-1.22-5.64-1.85-7.55-2.55-15.04-5.27-22.54-7.96-7.78-2.79-15.37-5.76-22.77-9.48-4.04-2.05-6.67-4.46-11.07-5.64-4.84-1.33-6.27 1.48-11.04-1.15z" fill="#EABBA4"/> <path d="m379.52 108.81s10.89-2.2 14.52-0.3c17.06 8.95 16.36 27.72 16.41 31.43s-8.15 13.21-8.15 13.21l-22.78-44.34z" fill="#CA9E67"/> <ellipse transform="matrix(.4909 .8712 -.8712 .4909 310.33 -261.47)" cx="378.88" cy="134.79" rx="44.86" ry="17.07" fill="#B17F4A"/> <path d="m389.01 171.99c-7.96-4.75-17.34-15.22-25-28.82-12.16-21.59-15.36-42.85-7.15-47.47 3.83-2.16 9.5-0.31 15.69 4.5-4.65-2.75-8.81-3.55-11.84-1.85-8.21 4.63-5.01 25.89 7.15 47.47 6.45 11.45 14.13 20.7 21.15 26.17z" fill="#1D1D1B" opacity=".1"/> <path d="m392.04 154.59c-9.86 9.63-24.32 8.76-36.25 8.11-4.92-0.27-6.29-6.42-6.67-11.21-0.12-1.54-0.08-3.16 0.12-4.84 0.27-2.41 0.84-4.94 1.65-7.52-0.97-0.27-1.93-0.78-2.67-1.69l0.14-0.14c0.81-0.8 4.92-4.9 6.56-7.95 0.01 0 0.01-0.01 0.01-0.01 0.58-1.15 1.19-2.28 1.82-3.4 0.47-0.82 0.96-1.6 1.46-2.34 0.36-0.53 0.71-1.04 1.09-1.53 3.46-4.51 7.59-7.27 11.97-8.49 1.27 0.92 20.77 28.43 20.11 36.18-0.13 1.62 0.5 3.21 0.66 4.83z" fill="#EABBA4"/> <path d="m376.68 186.17c-1.28-7.48-5.12-19.55-6.24-22.99-0.05-0.16-0.1-0.3-0.14-0.42-0.11-0.35-0.17-0.53-0.17-0.53 1.78-0.92 3.81-1.71 5.84-2.42 1.61-0.58 3.22-1.11 4.69-1.65 2.32-0.84 4.28-1.67 5.34-2.67 0 0 12.34 29.75-9.32 30.68z" fill="#EABBA4"/> <path d="m392.43 173.71c2.77 0.95 5.22 0.94 7.15-0.15 8.21-4.63 4.39-26.96-8.54-49.91-3.55-6.29-7.39-11.95-11.29-16.78 4.84 5.21 9.71 11.89 14.02 19.55 12.16 21.58 15.36 42.84 7.15 47.47-2.29 1.28-5.2 1.16-8.49-0.18z" fill="#fff" opacity=".1"/> <path d="m356.87 149.35c-1.61 2.02-5.07 2.91-7.75 2.14-0.12-1.54-0.08-3.16 0.12-4.84 0.13 0.13 0.27 0.27 0.41 0.42 2.29 2.5 7.22 2.28 7.22 2.28z" fill="#fff"/> <path d="m361.49 133.99c-0.81 1.44-2.13 2.24-2.93 1.78-0.8-0.45-0.79-1.99 0.02-3.43 0.82-1.44 2.13-2.23 2.93-1.78 0.8 0.46 0.79 1.99-0.02 3.43z" fill="#1D1D1B"/> <circle cx="360.65" cy="133.77" r=".86" fill="#fff"/> <path d="m366.38 132.97c-0.23-0.13-0.41-0.37-0.45-0.66-0.62-4.49-4.43-4.9-4.59-4.91-0.5-0.05-0.86-0.48-0.81-0.98s0.48-0.86 0.98-0.81c1.87 0.17 5.56 1.75 6.21 6.46 0.07 0.49-0.27 0.95-0.77 1.02-0.21 0.01-0.41-0.03-0.57-0.12z" fill="#7D4E24"/> <path d="m353.69 140.54c-0.32 0.56-2.23 1.07-3.74 0.22-1.51-0.86-2.05-2.76-1.73-3.32 1.22 1.5 3.03 1.92 4.47 1.97 0.74 0.42 1.2 0.77 1 1.13z" fill="#D3AA9B"/> <path d="m393.87 150.51-11.47-34.88s-10.11-7.67-17.08 0.7c0 0-1.12 9.26 7.92 13 3.72 1.54 2.4 11.84 2.4 11.84l3.34 7.67s-5.18 30.23 16.54 36.69c5.09 1.52 6.74 12.37 6.74 12.37 8.58-12.12-2.16-33.13-8.39-47.39z" fill="#683C11"/> <path d="m382.54 148.17c-2 1.63-4.61 1.86-6.15 0.57-0.16-0.15-0.33-0.3-0.46-0.45-0.23-0.27-0.41-0.59-0.52-0.93-0.67-1.73 0.07-4.02 1.92-5.53 1.22-0.99 2.68-1.46 3.97-1.36 0.58 0.05 1.11 0.19 1.6 0.44 0.39 0.19 0.73 0.47 1.02 0.83 1.44 1.74 0.83 4.62-1.38 6.43z" fill="#EABBA4"/> <path d="m380.91 142.02c3.82-0.25 2.47 4.38-0.05 5.32 1.01-2.02 2.18-3.59 0.05-5.32z" fill="#D3AA9B"/> <path d="m401.65 195.9s0.41 14.02-16.95 12.36-32.39-9.3-32.39-9.3 2.86-4.57 4.99-20.2c0 0.01 48.64-2.38 44.35 17.14z" fill="#E28C1A"/> <path d="m364.2 110.34s23.21 20.08 32.55 46.65l3.86-0.56s-5.61-35.28-19.74-45.03c-3.45-2.37-16.67-1.06-16.67-1.06z" fill="#B17F4A"/> <g opacity=".1"> <path d="m383.2 257.4c0.31 10.34-0.16 20.71-1.19 31-0.79 7.87-1.15 15.71-1.23 23.62-0.02 2.46-0.12 4.91-0.18 7.37v-0.12c0.62 6.29 1.25 12.57 1.69 18.88 0.45 6.57 0.78 13.16 0.89 19.74 0.01 0.79 0.02 1.58 0.02 2.38-0.36 0.13-0.4-1.26-0.45-1.55-0.26-1.69-0.5-3.39-0.72-5.09-0.43-3.26-0.84-6.53-1.2-9.81-0.86-7.83-1.44-15.67-1.97-23.53-0.21-3.2 0.4-6.5 0.69-9.69 0.26-2.77 0.54-5.54 0.75-8.31 0.46-6.33 0.4-12.66 0.55-19 0.11-4.39 0.42-8.78 0.78-13.16 0.18-2.19 0.38-4.38 0.61-6.57 0.13-1.16 0.26-2.32 0.4-3.47 0.06-0.41 0.22-2.79 0.56-2.69z" fill="#1D1D1B"/> </g> <path d="m378.82 162.82c-2.08 0.29-5.43 0.64-8.38 0.36-0.05-0.16-0.1-0.3-0.14-0.42 1.17-0.44 3.39-1.39 5.67-2.95 0.84-0.58 1.69-1.24 2.49-2 0.03 1.56 0.14 3.25 0.36 5.01z" fill="#1D1D1B" opacity=".1"/> <path d="m259.65 406.93c-2.68 2.28-11.23 9.15-13.87 3.01-3.01-7.02 13.88-7.14 13.87-3.01z" fill="#B0CC7E"/> <path d="m259.65 406.91c-2.86 2.52-7.46 6.58-11.68 5.03-4.75-1.75-0.22-3.7 2.11-4.47 3.14-1.03 6.32-1.31 9.57-0.56z" fill="none"/> <path d="m259.65 406.91c-2.86 2.52-7.46 6.58-11.68 5.03-4.75-1.75-0.22-3.7 2.11-4.47 3.14-1.03 6.32-1.31 9.57-0.56z" fill="#A6BC72"/> <path d="m241.17 415.53c2.02-18.1 6.61-43.96 22.7-55.27-15.03 12.12-17.91 37.69-18.71 55.56-1.33-0.1-2.66-0.19-3.99-0.29z" fill="#7B6A58"/> <path d="m228.33 412.3c2.73-2.17 6.36-3.82 9.91-3.46 3 0.31 9.39 4.18 6.54 7.94-1.47 1.93-6.75 1.55-8.67 0.69-1.35-0.61-7.77-3.35-7.78-5.17z" fill="#B0CC7E"/> <path d="m228.34 412.32c4.47-3.68 13.06-5.7 16.41 0.63 0.61 1.16 0.89 2.71 0.04 3.84-1.7 2.23-2.18 0.01-3.52-0.84-3.76-2.36-8.78-2.39-12.93-3.63z" fill="none"/> <path d="m228.34 412.32c4.47-3.68 13.06-5.7 16.41 0.63 0.61 1.16 0.89 2.71 0.04 3.84-1.7 2.23-2.18 0.01-3.52-0.84-3.76-2.36-8.78-2.39-12.93-3.63z" fill="#A6BC72"/> <path d="m269.27 354.41c-1.32 2.3-4.24 8.19-7.84 6.03-4.89-2.92 6.41-9.52 7.84-6.03z" fill="#B0CC7E"/> <path d="m269.27 354.4c-1.34 2.38-3.44 6.92-6.88 6.38-3.67-0.57 4.83-6.18 6.88-6.38z" fill="none"/> <path d="m269.27 354.4c-1.34 2.38-3.44 6.92-6.88 6.38-3.67-0.57 4.83-6.18 6.88-6.38z" fill="#A6BC72"/> <path d="m268.22 362.84c-2.15 2.33-6.55 6.09-9.65 3.02-3.63-3.59 8.88-7.11 9.65-3.02z" fill="#B0CC7E"/> <path d="m268.21 362.83c-1.93 2.14-7.06 6.49-9.78 2.88 1.9-2.88 6.72-3.23 9.78-2.88z" fill="none"/> <path d="m268.21 362.83c-1.93 2.14-7.06 6.49-9.78 2.88 1.9-2.88 6.72-3.23 9.78-2.88z" fill="#A6BC72"/> <path d="m251.38 360.76c2.18 0.59 8.24 4.41 4.99 7.4-3.2 2.97-6.88-5.98-4.99-7.4z" fill="#B0CC7E"/> <path d="m251.38 360.77c2.18 0.57 8.24 4.4 5 7.4-1.44 1.32-4.51-5.96-5-7.4z" fill="none"/> <path d="m251.38 360.77c2.18 0.57 8.24 4.4 5 7.4-1.44 1.32-4.51-5.96-5-7.4z" fill="#A6BC72"/> <path d="m263.41 372.26c-1.73 0-9.88 6.79-10.72 0.93-0.8-5.8 11.39-3.42 10.72-0.93 0 0 0.06-0.22 0 0z" fill="#B0CC7E"/> <path d="m263.41 372.25c-2.65 1.49-7.71 5.34-10.4 1.67 2.03-2.91 7.5-3.15 10.4-1.67z" fill="none"/> <path d="m263.41 372.25c-2.65 1.49-7.71 5.34-10.4 1.67 2.03-2.91 7.5-3.15 10.4-1.67z" fill="#A6BC72"/> <path d="m244.29 370.35c4.2 1 10.75 6.87 6.38 11.41-4.07 4.6-9.16-9.17-6.38-11.41z" fill="#B0CC7E"/> <path d="m244.28 370.36c4.13 0.92 8.3 4.54 7.42 9.19-0.51 2.7-3.71 4.63-3.89 0.97-0.19-3.57-2.22-6.91-3.53-10.16z" fill="none"/> <path d="m244.28 370.36c4.13 0.92 8.3 4.54 7.42 9.19-0.51 2.7-3.71 4.63-3.89 0.97-0.19-3.57-2.22-6.91-3.53-10.16z" fill="#A6BC72"/> <path d="m261.46 389.85c-3.77 2.24-8.79 7.22-13.29 3.63-2.92-2.35 1.55-5.8 3.58-6.42 1.4-0.46 10.3-0.2 9.71 2.79z" fill="#B0CC7E"/> <path d="m261.46 389.83c-3.34 2.05-7.13 5.96-11.38 4.58-3.27-1.07-1.54-2.6 0.78-3.88 3.08-1.7 7.34-2.15 10.6-0.7z" fill="none"/> <path d="m261.46 389.83c-3.34 2.05-7.13 5.96-11.38 4.58-3.27-1.07-1.54-2.6 0.78-3.88 3.08-1.7 7.34-2.15 10.6-0.7z" fill="#A6BC72"/> <path d="m235.23 393.89c3.28-0.3 14.08 0.92 11.09 6.86-2.84 5.63-12.88-4.43-11.09-6.86z" fill="#B0CC7E"/> <path d="m235.22 393.9c4-0.42 9.56-0.15 11.16 4.39 0.91 2.59-0.49 4-2.5 2.38-2.82-2.25-6.32-3.94-8.66-6.77z" fill="none"/> <path d="m235.22 393.9c4-0.42 9.56-0.15 11.16 4.39 0.91 2.59-0.49 4-2.5 2.38-2.82-2.25-6.32-3.94-8.66-6.77z" fill="#A6BC72"/> <path d="m123.26 225.68c0.04-0.17 13.12-0.3 14.16-0.48s4.45 1.38 2.31 3.3c-2.14 1.91-6.13 3.75-7.56 3.82s-9.06-5.95-8.91-6.64z" fill="#DBAF9E"/> <path d="m162.9 218.51s-7.75 4.16-9.46 4.39c-1.02 0.14-3.09 0.7-4.7 1.26 0.22 0.03 0.44 0.07 0.66 0.13 1.31 0.33 3.11 1.5 3.77 2.52 0.37 0.58 1.1 1.25 2.01 1.69 1.72-1.38 8.38-7.76 7.72-9.99z" fill="#DADADA"/> <path d="m150.61 231.44c-0.17 0.55-1.99 0.57-2.39 1.11-0.05 0.07-0.1 0.16-0.15 0.25-1.44-0.59-2.93-1.08-4.46-1.41 0.96-0.81 1.79-1.77 1.87-2 0.14-0.39 2.73-1.23 3.87-1.12s1.43 2.62 1.26 3.17z" fill="#878787"/> <path d="m159.61 229.79c-3.24 1.02-6.58 0.7-7.34 0.7s-4.4-0.55-4.87-0.88 0.55-1.74-0.52-1.53c-1.06 0.21-1.64 0.49-2.49 0.29-0.84-0.21-0.71-2.09-1.61-2.16-0.34-0.03-0.58-0.01-0.84 0.05-0.03-1.06 0.16-2.14 0.58-3.15 1.5 0.5 3.01 1.01 3.72 1.04 1.14 0.05 2.07-0.18 3.12-0.19 0.22 0 0.44 0.01 0.67 0.04 1.35 0.14 3.29 1.04 4.09 1.96 0.46 0.52 1.27 1.08 2.23 1.38 0.73 0.22 1.54 0.29 2.35 0.08 1.86-0.51 7.51-5.99 7.51-5.99l1.29 0.37c0-0.02-4.65 6.98-7.89 7.99z" fill="#EDEDED"/> <path d="m139.8 226.85c-1.87 0.48-5.76 1-7.29 1.05s-8.98-0.77-11.09-0.41c-2.1 0.37-5.84 1.62-6.98 1.57-1.13-0.04-2.37-1.98 1.5-2.86 3.86-0.89 9.91-1.34 12.35-1.29 2.44 0.06 6.25 0.42 7.69-0.47s1.42-2.37 3-2.3c0.76 0.04 2.14 0.49 3.54 0.95-0.43 1.01-0.61 2.09-0.58 3.15-0.45 0.11-0.96 0.31-2.14 0.61z" fill="#E28C1A"/> <path d="m146.73 235.01c-0.8 0.56-1.7 0.06-2.81 0.11s-2.31 0.6-3.12 1.16c-0.8 0.56-2.44 1.01-2.44 1.01s-4.12 2.45-5.91 3.83c-1.8 1.38-8.32 3.9-10.23 4.17s-3.4-2.68-0.09-2.97c3.31-0.3 11.84-5.05 12.58-6.05 0.75-1 5.43-3.52 6.86-3.73 0.6-0.08 1.35-0.58 2.04-1.16 1.53 0.33 3.02 0.82 4.46 1.41-0.33 0.64-0.65 1.74-1.34 2.22z" fill="#E28C1A"/> <circle cx="150" cy="227.17" r="1.59" fill="#C2CA9A"/> <polygon points="101.46 263.35 109.69 334.29 107.99 345.55 108.69 355.72 104.73 355.72 81.32 354.48 89.72 268.93" fill="#82796E"/> <path d="m83.56 364.61s0.11 1.5 0.3 3.9c0.04 0.48 0.08 0.99 0.12 1.53 0.05 0.63 0.11 1.31 0.17 2.02 0.04 0.49 0.08 1.01 0.13 1.53 0.85 9.95 2.31 24.97 3.55 27.81-0.47 0.05-2.63 6.71 0.69 12.28 1.89 3.17 39.56 1.79 44.37 1.14 2.24-0.3 4.21-3.59 3.05-6.2-0.81-1.82-3.15-3.31-8.02-3.19-6.58 0.17-18.15-6.6-19.34-10.23-0.02-7.2 0.98-15.47 1.92-21.59 0.08-0.52 0.16-1.04 0.25-1.53 0.12-0.75 0.23-1.46 0.34-2.12 0.1-0.54 0.19-1.06 0.27-1.54 0.42-2.37 0.72-3.81 0.72-3.81h-28.52z" fill="#DD8D36"/> <path d="m88.07 412.29s13.62 0.13 13.85 0.08c8.15-1.62 24.48 2.04 32.63 0.42 0.96-0.19 1.74 0.47 1.74 1.6s-0.78 2.28-1.74 2.46c-8.15 1.59-24.48-2.09-32.63-0.49-0.12 0.02-0.23 0.03-0.34 0.03-0.17 0.66-0.47 1.1-0.8 1.1h-12.7c-0.54 0-0.98-1.17-0.98-2.6-0.01-1.43 0.43-2.6 0.97-2.6z" fill="#54351C"/> <path d="m83.85 368.51c0.04 0.48 0.08 0.99 0.12 1.53 3.88 0.66 8.04 0.89 12.01 0.89 6.1 0 11.72-0.55 15.11-0.97 0.09-0.55 0.18-1.06 0.27-1.54-5.36 0.66-17.61 1.84-27.51 0.09z" fill="#F9B233"/> <path d="m84.14 372.06c0.04 0.49 0.08 1 0.13 1.53 3.88 0.65 8.04 0.88 11.99 0.88 5.6 0 10.81-0.46 14.24-0.86 0.08-0.53 0.16-1.04 0.24-1.54-5.73 0.68-17.22 1.65-26.6-0.01z" fill="#F9B233"/> <path d="m80.25 360.75c0 3.94 3.06 7.14 6.83 7.14h22.08c3.77 0 6.83-3.2 6.83-7.14 0-3.95-3.05-7.14-6.83-7.14h-22.08c-3.77-0.01-6.83 3.19-6.83 7.14z" fill="#C4BCAD"/> <path d="m77.38 149.88s-29.51 9.45-31 21.1c-1.49 11.66-2.44 61.72-1.55 63.8s1.52 10.32 1.52 10.32l51.58 23.83s5.76-42.17 6.65-53.17c1.09-13.45-2.03-61.47-7.81-62.86-5.77-1.4-16.34-4.5-19.39-3.02z" fill="#DADADA"/> <path d="m106.87 199.52c0 2.65-1.35 18.64-2.78 34.83-0.06 0.69-0.13 1.38-0.19 2.07-0.17 1.84-0.33 3.68-0.49 5.49-0.09 0.97-0.17 1.93-0.26 2.89-1.29 14.24-2.41 26.3-2.41 26.3l-0.52 69.95-4.75 5.54 1.48 4.23-1.7 5.5-6.81 5.48-3.45 10.48h-23.19c-0.51-2.57-0.15-7.01 0.72-11.84v-0.01c-4.84-25.03-6.7-72.16-9.37-75.43-1.59-1.94-2.32-3.28-7.87-9.67l-0.01-0.03c-7.52-10.44-0.43-47.88-0.43-47.88s11.17 8.63 27.07 2.94c15.89-5.69 8.81-46.31 8.81-46.31 9.63 0.1 17.05-0.45 21.43-0.9 2.9-0.3 4.47-0.56 4.47-0.56s0.19 5.88 0.24 14.58c0 0.76 0.01 1.54 0.01 2.35z" fill="#9B9180"/> <path d="m103.41 238.58c-0.09 0.97-0.17 1.93-0.26 2.89-1.39 1.07-2.78 1.99-2.78 1.99s-40.57 3.78-55.53 0.33c0 0 40.49 1.08 54.53-3.93 1.73-0.62 3.06-1.03 4.04-1.28z" fill="#1D1D1B" opacity=".1"/> <path d="m89.72 247.61s-6.53 11.73-8.88 13.31-11.76 0-11.76 0 8.49-2.12 10.32-3.41 6.85-10.76 6.85-10.76l3.47 0.86z" fill="#1D1D1B" opacity=".1"/> <path d="m61.94 369.75s0.11 1.55 0.3 4.03c0.04 0.5 0.09 1.02 0.13 1.58 0.05 0.65 0.11 1.35 0.17 2.09 0.04 0.51 0.08 1.04 0.14 1.58 0.88 10.29 2.37 25.82 3.65 28.75-0.48 0.06-2.7 6.94 0.71 12.69 1.94 3.27 40.63 1.85 45.56 1.18 2.3-0.31 4.32-3.71 3.13-6.4-0.83-1.89-3.24-3.42-8.24-3.3-6.76 0.18-18.64-6.83-19.86-10.57-0.02-7.44 1.01-15.99 1.98-22.32 0.08-0.54 0.17-1.07 0.25-1.58 0.12-0.78 0.24-1.51 0.35-2.19 0.1-0.56 0.19-1.1 0.28-1.59 0.43-2.45 0.74-3.94 0.74-3.94h-29.29z" fill="#F2992F"/> <path d="m66.57 419.05s13.99 0.13 14.22 0.08c8.37-1.67 25.14 2.11 33.5 0.44 0.99-0.2 1.79 0.49 1.79 1.65s-0.8 2.35-1.79 2.55c-8.37 1.65-25.14-2.16-33.5-0.51-0.12 0.02-0.24 0.03-0.35 0.03-0.18 0.69-0.48 1.14-0.82 1.14h-13.05c-0.56 0-1.01-1.21-1.01-2.69 0.01-1.49 0.46-2.69 1.01-2.69z" fill="#54351C"/> <path d="m62.24 373.78c0.04 0.5 0.08 1.02 0.13 1.58 3.99 0.68 8.26 0.92 12.33 0.92 6.26 0 12.04-0.57 15.51-1 0.1-0.57 0.19-1.1 0.27-1.59-5.49 0.69-18.08 1.9-28.24 0.09z" fill="#F9B233"/> <path d="m62.54 377.46c0.05 0.51 0.09 1.04 0.13 1.58 3.98 0.68 8.25 0.91 12.31 0.91 5.75 0 11.1-0.48 14.62-0.89 0.08-0.55 0.17-1.08 0.25-1.59-5.89 0.71-17.69 1.7-27.31-0.01z" fill="#F9B233"/> <path d="m57.79 365.76c0 4.08 3.49 7.38 7.79 7.38h25.2c4.31 0 7.79-3.31 7.79-7.38 0-4.08-3.49-7.38-7.79-7.38h-25.2c-4.3 0-7.79 3.3-7.79 7.38z" fill="#C4BCAD"/> <path d="m83.98 152.89s8.13 3.85 9.29 5.03 7.93 26.13 7.93 26.13l5.43-1.46s-5.96-25.2-12.73-29.3c-2.81-1.7-4.65-3.09-5.89-2.89s-4.03 2.49-4.03 2.49z" fill="#9B9180"/> <path d="m99.71 181.99c0.29 1.71 1.77 2.88 3.31 2.62l2.65-0.45c1.54-0.26 2.56-1.86 2.27-3.56-0.29-1.71-1.77-2.88-3.31-2.62l-2.65 0.45c-1.54 0.26-2.56 1.86-2.27 3.56z" fill="none" stroke="#9D9D9C" stroke-miterlimit="10"/> <path d="m88.27 220.59c2.17-2.96 2.18-18.47 2.18-18.75 0 0 8.23-1.08 13.71-1.9 1.02-0.15 1.95-0.3 2.71-0.42 0-0.81-0.01-1.59-0.01-2.35-0.84 0.14-1.84 0.29-2.91 0.45-6.22 0.92-15.22 2.11-15.22 2.11s0.5 17.38-2.47 20.19c-2.98 2.8-4.94 2.97-4.94 2.97l2.23 16.79 19.88-3.18 0.47-0.08c0.06-0.69 0.13-1.38 0.19-2.07l-0.56 0.1-18.54 3.29-2.03-13.97s3.19-0.28 5.31-3.18z" fill="#1D1D1B" opacity=".1"/> <path d="m73.15 83.75s-10.89-2.2-14.52-0.3c-17.06 8.95-16.36 27.72-16.41 31.43s8.15 13.21 8.15 13.21l22.78-44.34z" fill="#CA9E67"/> <ellipse transform="matrix(-.4909 .8712 -.8712 -.4909 210.28 99.446)" cx="76.08" cy="111.16" rx="44.86" ry="21.21" fill="#B17F4A"/> <path d="m64.09 150.95c-3.18 0.72-6.08 0.46-8.49-0.9-10.21-5.75-8-29 4.93-51.94 3.54-6.29 7.51-11.89 11.63-16.59-5.19 5.02-10.26 11.58-14.57 19.23-12.16 21.58-13.74 43.76-3.54 49.51 2.84 1.59 6.28 1.77 10.04 0.69z" fill="#fff" opacity=".1"/> <path d="m67.95 149.49c8.93-4.2 18.95-14.31 26.61-27.91 12.16-21.58 13.74-43.76 3.54-49.51-4.76-2.68-11.28-1.31-18.11 3.13 5.23-2.43 10.06-2.85 13.83-0.72 10.21 5.75 8.63 27.92-3.54 49.51-6.44 11.44-14.58 20.44-22.33 25.5z" fill="#1D1D1B" opacity=".1"/> <path d="m90.82 146.9c-1.13 6.43 1.64 13.38 1.64 13.38-7.36 6.78-18.81 0-18.81 0l-2.29-16.87-0.86-6.26-0.95-7c7.65 3.8 25.34 8.18 22.91 12.2-0.17 0.27-0.32 0.56-0.47 0.84-0.58 1.18-0.96 2.44-1.17 3.71z" fill="#EABBA4"/> <path d="m61.86 127c7.88 13.91 22.26 19.89 40.92 14.11 12.12-3.76 6.93-22.85-0.96-36.76-0.47-0.83-0.96-1.61-1.46-2.35-0.36-0.53-0.72-1.04-1.1-1.53-7.94-10.37-19.46-11.52-29.38-5.9-11.04 6.26-15.91 18.52-8.02 32.43z" fill="#EABBA4"/> <path d="m108.09 123.59c1.29 3.23 1.13 5.16-1.62 6.72s-7.37 0.32-9.47-2.45c0 0 3.8-0.7 7.34-2.05 3.24-1.25 3.75-2.22 3.75-2.22z" fill="#fff"/> <path d="m99.85 109.04c0.81 1.44 2.13 2.24 2.93 1.78 0.8-0.45 0.79-1.99-0.02-3.43s-2.13-2.23-2.93-1.78c-0.81 0.46-0.8 1.99 0.02 3.43z" fill="#1D1D1B"/> <path d="m100.09 109.48c0.24 0.42 0.76 0.56 1.18 0.33 0.41-0.23 0.56-0.76 0.32-1.18-0.23-0.42-0.76-0.56-1.17-0.33-0.42 0.24-0.56 0.76-0.33 1.18z" fill="#fff"/> <ellipse transform="matrix(-.8698 .4934 -.4934 -.8698 226.2 168.58)" cx="90.86" cy="114.14" rx="1.67" ry="2.99" fill="#1D1D1B"/> <circle cx="90.25" cy="114.73" r=".87" fill="#fff"/> <path d="m84.52 113.93c0.23-0.13 0.41-0.37 0.45-0.66 0.62-4.49 4.43-4.9 4.59-4.91 0.5-0.05 0.86-0.48 0.81-0.98s-0.48-0.86-0.98-0.81c-1.87 0.17-5.56 1.75-6.21 6.46-0.07 0.49 0.27 0.95 0.77 1.01 0.2 0.03 0.4-0.01 0.57-0.11z" fill="#7D4E24"/> <path d="m96.37 103.99c0.41 0.3 0.97 0.21 1.26-0.19 0.06-0.08 1.01-1.33 2.74-1.79-0.36-0.53-0.72-1.04-1.1-1.53-1.47 0.55-2.54 1.51-3.1 2.26-0.28 0.4-0.19 0.96 0.2 1.25z" fill="#7D4E24"/> <path d="m100.43 120.13c0.32 0.57 2.23 1.08 3.74 0.22s2.05-2.75 1.73-3.32-1.45 0.29-2.96 1.14c-1.52 0.86-2.83 1.39-2.51 1.96z" fill="#D3AA9B"/> <path d="m90.37 93.11s-12.79 11.76-12.1 19.44c0.36 4.01 4.41 8.04 4.41 8.04s-3.73 3.9-6.17 5.16c-8.55 4.41-4.48 11.35-6.01 11.41-11.9 0.49-17.35-0.3-17.35-0.3l18.59-42.24c0-0.01 11.5-7.36 18.63-1.51z" fill="#683C11"/> <path d="m90.25 87.47s-36.02 12.91-20.7 51.84c0 0-17.82 1.35-18.83-2.18-2.8-9.85 12.11-42.89 12.11-42.89l27.42-6.77z" fill="#B17F4A"/> <path d="m72.06 129.08c2 1.63 4.61 1.86 6.15 0.57 0.16-0.15 0.33-0.29 0.46-0.45 0.23-0.27 0.41-0.59 0.52-0.93 0.68-1.73-0.07-4.02-1.92-5.53-1.22-0.99-2.68-1.46-3.97-1.36-0.58 0.05-1.11 0.19-1.6 0.44-0.39 0.19-0.73 0.47-1.02 0.83-1.45 1.74-0.83 4.62 1.38 6.43z" fill="#EABBA4"/> <path d="m73.69 122.93c-3.82-0.25-2.47 4.38 0.05 5.32-1.01-2.02-2.18-3.59-0.05-5.32z" fill="#D3AA9B"/> <path d="m56.45 159.29s10.63 0.85 12.17 1.43c8.73 3.3 12.1 23.33 12.1 23.33h6.57s-7.52-23.98-16.07-26.4c-3.16-0.89-8.73-0.91-9.96-0.71s-4.81 2.35-4.81 2.35z" fill="#9B9180"/> <path d="m79.83 184.28c0.29 1.71 1.77 2.88 3.31 2.62l2.65-0.45c1.54-0.26 2.56-1.85 2.27-3.56s-1.77-2.88-3.31-2.62l-2.65 0.45c-1.55 0.26-2.56 1.85-2.27 3.56z" fill="none" stroke="#9D9D9C" stroke-miterlimit="10"/> <path d="m121.17 233.56c-1.95 0.93-4.3 0.51-6.37 0.3-5.7-0.59-11.38-1.64-17.03-2.63-6.18-1.08-12.35-2.22-18.48-3.5-3.21-0.66-7.1-1.14-9.93-2.9-0.01-0.01-0.04-0.02-0.07-0.03v-0.01c-0.89-0.39-1.71-1.26-2.36-1.94-1.23-1.29-2.24-2.75-3.14-4.27-2.24-3.77-3.96-7.85-5.63-11.89-0.7-1.69-1.38-3.4-2.02-5.11-0.33-0.84-0.65-1.68-0.96-2.52-0.01-0.03-0.03-0.06-0.03-0.09-0.05-0.1-0.09-0.22-0.13-0.33-1.59-4.27-3.1-8.58-4.56-12.89-1.45-4.42-0.31-9.35 3.02-12.62 3.28-3.23 8.27-4.34 12.61-2.8 4.2 1.49 7.16 5.15 7.98 9.49 0.58 3.16 1.16 6.34 1.78 9.49 0.19 1 0.39 2 0.6 2.99 0.07 0.35 0.15 0.71 0.22 1.06 0.03 0.14 0.06 0.27 0.09 0.41 0.18 0.82 0.36 1.65 0.54 2.47 0.46 2.04 0.94 4.08 1.46 6.1 0.4 1.56 0.82 3.11 1.3 4.64 0.21 0.69 0.44 1.39 0.68 2.08 0.03 0.06 0.08 0.26 0.13 0.47 2.3 0.97 4.71 1.75 7.04 2.59 5.23 1.88 10.46 3.68 15.72 5.43 4.75 1.58 9.51 3.14 14.36 4.41 2.85 0.75 5.99 2.74 6.33 5.88 0.27 2.36-1.02 4.68-3.15 5.72z" fill="#EABBA4"/> <path d="m79.4 192.47s-0.76-0.09-2.03-0.14c-0.28-0.01-0.59-0.02-0.92-0.03-5.22-0.11-16.03 0.51-21.55 6.94-0.48 0.55-0.92 1.14-1.31 1.79 0 0-0.16-0.26-0.44-0.74-2.58-4.44-14.97-27.83 2.09-40.09 1.25-0.91 15.43 2.55 19.35 15.04 3.91 12.48 4.81 17.23 4.81 17.23z" fill="#C6C6C6"/> <g opacity=".1"> <path d="m70.94 265.48c2.5 8.41 4.16 17.2 5.27 25.9 0.96 7.52 3.54 15.35 3.9 22.86 0.22 4.62-1.08 10.65-1.55 15.54-0.01-0.13-0.02-0.25-0.03-0.38 0.43 1.69 0.99 3.51 0.73 5.26 0.02-0.05 0.03-0.11 0.05-0.16-0.03 3.41 0.4 6.85 0.64 10.25 0.28 3.96-2.13 7.53-3.91 11.01 0.04-1.51 2.05-8.13 2.68-8.68-0.76-4.38-0.88-8.83-1.43-13.17-0.29-2.3-0.89-4.02-0.59-6.38 0.48-3.82 0.21-9.84 2.09-13.25-0.04-0.03-0.09 0.21-0.09 0.23-0.85-1.7-0.51-5.04-0.75-6.93-0.64-5.07-1.69-10.04-2.83-15.01-1.92-8.29-5.06-18.85-4.18-27.09z" fill="#1D1D1B"/> </g> <polygon points="96.6 345.28 89.13 342.8 95.47 346.59" fill="#1D1D1B" opacity=".1"/> <polygon points="96.25 353.64 81.63 352.08 91.14 358.66 96.63 354.24" fill="#1D1D1B" opacity=".1"/> <polygon points="57.83 323.3 66.27 303.36 57.19 316.42" fill="#1D1D1B" opacity=".1"/> <path d="m58.28 328c-0.02-0.19 6.56-11.88 6.56-11.88l-5.98 17.59-0.58-5.71z" fill="#1D1D1B" opacity=".1"/> <path d="m111.43 233.51s11.23 9.3 12.98 9.77c1.75 0.46 4.3 1.01 5.3-0.01 0 0 3.36 0.28 4.15-1.39 0 0 4.2-0.02 4.88-2.46 0 0 3.46 1.94 4.84-0.02s0.69-3.15-1.45-4.6c-2.13-1.45-6.96-8.17-7.87-8.67s-9.73-2.64-10.81-2.34-5-0.77-6.36 0.01-6.34 9.15-5.66 9.71z" fill="#EABBA4"/> <path d="m76.45 192.3c-5.14-0.11-15.72 0.49-21.3 6.67 0 0.03 0.02 0.06 0.03 0.09 0.31 0.84 0.63 1.68 0.96 2.52 6.38-5.74 17.32-7.42 20.62-7.81l-0.31-1.47z" fill="#1D1D1B" opacity=".1"/> <path d="m119.37 181.85c-1.42-0.15-2.84-0.31-4.26-0.48-0.03 0-0.06 0-0.09-0.01-2.93-7.8 1.4-17.47 3.85-21.99 0.35 0.09 0.7 0.19 1.05 0.29 0.5 0.13 1 0.27 1.5 0.4 0 0-5.98 15.56-2.05 21.79z" fill="#1D1D1B" opacity=".1"/> <path d="m72.83 138.77c-0.13 0.03-2.2-1.65-2.33-1.62l0.47 3.43c7.54 3.57 20.44 3.79 21.02 2.61-7.35 0.52-13.8-1.06-19.16-4.42z" fill="#1D1D1B" opacity=".1"/> </svg>